/* XPM */
static char *_f9221b177004168cff72afc8fd78856Tas74ft1OgrhjNqt[] = {
/* columns rows colors chars-per-pixel */
"128 128 7 1 ",
"  c None",
". c #4C3A30",
"X c #484747",
"o c #991D1D",
"O c #E97339",
"+ c #CFBF22",
"@ c #EFDAB4",
/* pixels */
"                                                                                                                                ",
"                                                                                                                                ",
"                                                                                                                                ",
"                                                                                                                                ",
"                                                                                                                                ",
"                                                                                                                                ",
"                                                                                                                                ",
"                                                                                                                                ",
"OOOOOOOO........oooooooooooooooooooooooooooooooo........OOOOOOOOOOOOOOOO........oooooooooooooooooooooooooooooooo........OOOOOOOO",
"OOOOOOOO........oooooooooooooooooooooooooooooooo........OOOOOOOOOOOOOOOO........oooooooooooooooooooooooooooooooo........OOOOOOOO",
"OOOOOOOO........oooooooooooooooooooooooooooooooo........OOOOOOOOOOOOOOOO........oooooooooooooooooooooooooooooooo........OOOOOOOO",
"OOOOOOOO........oooooooooooooooooooooooooooooooo........OOOOOOOOOOOOOOOO........oooooooooooooooooooooooooooooooo........OOOOOOOO",
"OOOOOOOO........oooooooooooooooooooooooooooooooo........OOOOOOOOOOOOOOOO........oooooooooooooooooooooooooooooooo........OOOOOOOO",
"OOOOOOOO........oooooooooooooooooooooooooooooooo........OOOOOOOOOOOOOOOO........oooooooooooooooooooooooooooooooo........OOOOOOOO",
"OOOOOOOO........oooooooooooooooooooooooooooooooo........OOOOOOOOOOOOOOOO........oooooooooooooooooooooooooooooooo........OOOOOOOO",
"OOOOOOOO........oooooooooooooooooooooooooooooooo........OOOOOOOOOOOOOOOO........oooooooooooooooooooooooooooooooo........OOOOOOOO",
"++++++++........oooooooooooooooooooooooooooooooo........++++++++++++++++........oooooooooooooooooooooooooooooooo........++++++++",
"++++++++........oooooooooooooooooooooooooooooooo........++++++++++++++++........oooooooooooooooooooooooooooooooo........++++++++",
"++++++++........oooooooooooooooooooooooooooooooo........++++++++++++++++........oooooooooooooooooooooooooooooooo........++++++++",
"++++++++........oooooooooooooooooooooooooooooooo........++++++++++++++++........oooooooooooooooooooooooooooooooo........++++++++",
"++++++++........oooooooooooooooooooooooooooooooo........++++++++++++++++........oooooooooooooooooooooooooooooooo........++++++++",
"++++++++........oooooooooooooooooooooooooooooooo........++++++++++++++++........oooooooooooooooooooooooooooooooo........++++++++",
"++++++++........oooooooooooooooooooooooooooooooo........++++++++++++++++........oooooooooooooooooooooooooooooooo........++++++++",
"++++++++........oooooooooooooooooooooooooooooooo........++++++++++++++++........oooooooooooooooooooooooooooooooo........++++++++",
"@@@@@@@@........XXXXXXXXXXXXXXXXXXXXXXXXXXXXXXXX........@@@@@@@@@@@@@@@@........XXXXXXXXXXXXXXXXXXXXXXXXXXXXXXXX........@@@@@@@@",
"@@@@@@@@........XXXXXXXXXXXXXXXXXXXXXXXXXXXXXXXX........@@@@@@@@@@@@@@@@........XXXXXXXXXXXXXXXXXXXXXXXXXXXXXXXX........@@@@@@@@",
"@@@@@@@@........XXXXXXXXXXXXXXXXXXXXXXXXXXXXXXXX........@@@@@@@@@@@@@@@@........XXXXXXXXXXXXXXXXXXXXXXXXXXXXXXXX........@@@@@@@@",
"@@@@@@@@........XXXXXXXXXXXXXXXXXXXXXXXXXXXXXXXX........@@@@@@@@@@@@@@@@........XXXXXXXXXXXXXXXXXXXXXXXXXXXXXXXX........@@@@@@@@",
"@@@@@@@@........XXXXXXXXXXXXXXXXXXXXXXXXXXXXXXXX........@@@@@@@@@@@@@@@@........XXXXXXXXXXXXXXXXXXXXXXXXXXXXXXXX........@@@@@@@@",
"@@@@@@@@........XXXXXXXXXXXXXXXXXXXXXXXXXXXXXXXX........@@@@@@@@@@@@@@@@........XXXXXXXXXXXXXXXXXXXXXXXXXXXXXXXX........@@@@@@@@",
"@@@@@@@@........XXXXXXXXXXXXXXXXXXXXXXXXXXXXXXXX........@@@@@@@@@@@@@@@@........XXXXXXXXXXXXXXXXXXXXXXXXXXXXXXXX........@@@@@@@@",
"@@@@@@@@........XXXXXXXXXXXXXXXXXXXXXXXXXXXXXXXX........@@@@@@@@@@@@@@@@........XXXXXXXXXXXXXXXXXXXXXXXXXXXXXXXX........@@@@@@@@",
"@@@@@@@@........XXXXXXXXXXXXXXXXXXXXXXXXXXXXXXXX........@@@@@@@@@@@@@@@@........XXXXXXXXXXXXXXXXXXXXXXXXXXXXXXXX........@@@@@@@@",
"@@@@@@@@........XXXXXXXXXXXXXXXXXXXXXXXXXXXXXXXX........@@@@@@@@@@@@@@@@........XXXXXXXXXXXXXXXXXXXXXXXXXXXXXXXX........@@@@@@@@",
"@@@@@@@@........XXXXXXXXXXXXXXXXXXXXXXXXXXXXXXXX........@@@@@@@@@@@@@@@@........XXXXXXXXXXXXXXXXXXXXXXXXXXXXXXXX........@@@@@@@@",
"@@@@@@@@........XXXXXXXXXXXXXXXXXXXXXXXXXXXXXXXX........@@@@@@@@@@@@@@@@........XXXXXXXXXXXXXXXXXXXXXXXXXXXXXXXX........@@@@@@@@",
"@@@@@@@@........XXXXXXXXXXXXXXXXXXXXXXXXXXXXXXXX........@@@@@@@@@@@@@@@@........XXXXXXXXXXXXXXXXXXXXXXXXXXXXXXXX........@@@@@@@@",
"@@@@@@@@........XXXXXXXXXXXXXXXXXXXXXXXXXXXXXXXX........@@@@@@@@@@@@@@@@........XXXXXXXXXXXXXXXXXXXXXXXXXXXXXXXX........@@@@@@@@",
"@@@@@@@@........XXXXXXXXXXXXXXXXXXXXXXXXXXXXXXXX........@@@@@@@@@@@@@@@@........XXXXXXXXXXXXXXXXXXXXXXXXXXXXXXXX........@@@@@@@@",
"@@@@@@@@........XXXXXXXXXXXXXXXXXXXXXXXXXXXXXXXX........@@@@@@@@@@@@@@@@........XXXXXXXXXXXXXXXXXXXXXXXXXXXXXXXX........@@@@@@@@",
"++++++++........oooooooooooooooooooooooooooooooo........++++++++++++++++........oooooooooooooooooooooooooooooooo........++++++++",
"++++++++........oooooooooooooooooooooooooooooooo........++++++++++++++++........oooooooooooooooooooooooooooooooo........++++++++",
"++++++++........oooooooooooooooooooooooooooooooo........++++++++++++++++........oooooooooooooooooooooooooooooooo........++++++++",
"++++++++........oooooooooooooooooooooooooooooooo........++++++++++++++++........oooooooooooooooooooooooooooooooo........++++++++",
"++++++++........oooooooooooooooooooooooooooooooo........++++++++++++++++........oooooooooooooooooooooooooooooooo........++++++++",
"++++++++........oooooooooooooooooooooooooooooooo........++++++++++++++++........oooooooooooooooooooooooooooooooo........++++++++",
"++++++++........oooooooooooooooooooooooooooooooo........++++++++++++++++........oooooooooooooooooooooooooooooooo........++++++++",
"++++++++........oooooooooooooooooooooooooooooooo........++++++++++++++++........oooooooooooooooooooooooooooooooo........++++++++",
"++++++++........oooooooooooooooooooooooo@@@@@@@@@@@@@@@@@@@@@@@@@@@@@@@@@@@@@@@@@@@@@@@@oooooooooooooooooooooooo........++++++++",
"++++++++........oooooooooooooooooooooooo@@@@@@@@@@@@@@@@@@@@@@@@@@@@@@@@@@@@@@@@@@@@@@@@oooooooooooooooooooooooo........++++++++",
"++++++++........oooooooooooooooooooooooo@@@@@@@@@@@@@@@@@@@@@@@@@@@@@@@@@@@@@@@@@@@@@@@@oooooooooooooooooooooooo........++++++++",
"++++++++........oooooooooooooooooooooooo@@@@@@@@@@@@@@@@@@@@@@@@@@@@@@@@@@@@@@@@@@@@@@@@oooooooooooooooooooooooo........++++++++",
"++++++++........oooooooooooooooooooooooo@@@@@@@@@@@@@@@@@@@@@@@@@@@@@@@@@@@@@@@@@@@@@@@@oooooooooooooooooooooooo........++++++++",
"++++++++........oooooooooooooooooooooooo@@@@@@@@@@@@@@@@@@@@@@@@@@@@@@@@@@@@@@@@@@@@@@@@oooooooooooooooooooooooo........++++++++",
"++++++++........oooooooooooooooooooooooo@@@@@@@@@@@@@@@@@@@@@@@@@@@@@@@@@@@@@@@@@@@@@@@@oooooooooooooooooooooooo........++++++++",
"++++++++........oooooooooooooooooooooooo@@@@@@@@@@@@@@@@@@@@@@@@@@@@@@@@@@@@@@@@@@@@@@@@oooooooooooooooooooooooo........++++++++",
"++++++++................................++++++++++++++++++++++++++++++++++++++++++++++++................................++++++++",
"++++++++................................++++++++++++++++++++++++++++++++++++++++++++++++................................++++++++",
"++++++++................................++++++++++++++++++++++++++++++++++++++++++++++++................................++++++++",
"++++++++................................++++++++++++++++++++++++++++++++++++++++++++++++................................++++++++",
"++++++++................................++++++++++++++++++++++++++++++++++++++++++++++++................................++++++++",
"++++++++................................++++++++++++++++++++++++++++++++++++++++++++++++................................++++++++",
"++++++++................................++++++++++++++++++++++++++++++++++++++++++++++++................................++++++++",
"++++++++................................++++++++++++++++++++++++++++++++++++++++++++++++................................++++++++",
"++++++++++++++++++++++++++++++++++++++++++++++++++++++++XXXXXXXXXXXXXXXX++++++++++++++++++++++++++++++++++++++++++++++++++++++++",
"++++++++++++++++++++++++++++++++++++++++++++++++++++++++XXXXXXXXXXXXXXXX++++++++++++++++++++++++++++++++++++++++++++++++++++++++",
"++++++++++++++++++++++++++++++++++++++++++++++++++++++++XXXXXXXXXXXXXXXX++++++++++++++++++++++++++++++++++++++++++++++++++++++++",
"++++++++++++++++++++++++++++++++++++++++++++++++++++++++XXXXXXXXXXXXXXXX++++++++++++++++++++++++++++++++++++++++++++++++++++++++",
"++++++++++++++++++++++++++++++++++++++++++++++++++++++++XXXXXXXXXXXXXXXX++++++++++++++++++++++++++++++++++++++++++++++++++++++++",
"++++++++++++++++++++++++++++++++++++++++++++++++++++++++XXXXXXXXXXXXXXXX++++++++++++++++++++++++++++++++++++++++++++++++++++++++",
"++++++++++++++++++++++++++++++++++++++++++++++++++++++++XXXXXXXXXXXXXXXX++++++++++++++++++++++++++++++++++++++++++++++++++++++++",
"++++++++++++++++++++++++++++++++++++++++++++++++++++++++XXXXXXXXXXXXXXXX++++++++++++++++++++++++++++++++++++++++++++++++++++++++",
"OOOOOOOOOOOOOOOOOOOOOOOOOOOOOOOOOOOOOOOO++++++++++++++++XXXXXXXXXXXXXXXX++++++++++++++++OOOOOOOOOOOOOOOOOOOOOOOOOOOOOOOOOOOOOOOO",
"OOOOOOOOOOOOOOOOOOOOOOOOOOOOOOOOOOOOOOOO++++++++++++++++XXXXXXXXXXXXXXXX++++++++++++++++OOOOOOOOOOOOOOOOOOOOOOOOOOOOOOOOOOOOOOOO",
"OOOOOOOOOOOOOOOOOOOOOOOOOOOOOOOOOOOOOOOO++++++++++++++++XXXXXXXXXXXXXXXX++++++++++++++++OOOOOOOOOOOOOOOOOOOOOOOOOOOOOOOOOOOOOOOO",
"OOOOOOOOOOOOOOOOOOOOOOOOOOOOOOOOOOOOOOOO++++++++++++++++XXXXXXXXXXXXXXXX++++++++++++++++OOOOOOOOOOOOOOOOOOOOOOOOOOOOOOOOOOOOOOOO",
"OOOOOOOOOOOOOOOOOOOOOOOOOOOOOOOOOOOOOOOO++++++++++++++++XXXXXXXXXXXXXXXX++++++++++++++++OOOOOOOOOOOOOOOOOOOOOOOOOOOOOOOOOOOOOOOO",
"OOOOOOOOOOOOOOOOOOOOOOOOOOOOOOOOOOOOOOOO++++++++++++++++XXXXXXXXXXXXXXXX++++++++++++++++OOOOOOOOOOOOOOOOOOOOOOOOOOOOOOOOOOOOOOOO",
"OOOOOOOOOOOOOOOOOOOOOOOOOOOOOOOOOOOOOOOO++++++++++++++++XXXXXXXXXXXXXXXX++++++++++++++++OOOOOOOOOOOOOOOOOOOOOOOOOOOOOOOOOOOOOOOO",
"OOOOOOOOOOOOOOOOOOOOOOOOOOOOOOOOOOOOOOOO++++++++++++++++XXXXXXXXXXXXXXXX++++++++++++++++OOOOOOOOOOOOOOOOOOOOOOOOOOOOOOOOOOOOOOOO",
"++++++++................................++++++++++++++++++++++++++++++++++++++++++++++++................................++++++++",
"++++++++................................++++++++++++++++++++++++++++++++++++++++++++++++................................++++++++",
"++++++++................................++++++++++++++++++++++++++++++++++++++++++++++++................................++++++++",
"++++++++................................++++++++++++++++++++++++++++++++++++++++++++++++................................++++++++",
"++++++++................................++++++++++++++++++++++++++++++++++++++++++++++++................................++++++++",
"++++++++................................++++++++++++++++++++++++++++++++++++++++++++++++................................++++++++",
"++++++++................................++++++++++++++++++++++++++++++++++++++++++++++++................................++++++++",
"++++++++................................++++++++++++++++++++++++++++++++++++++++++++++++................................++++++++",
"++++++++........oooooooooooooooooooooooo++++++++++++++++++++++++++++++++++++++++++++++++oooooooooooooooooooooooo........++++++++",
"++++++++........oooooooooooooooooooooooo++++++++++++++++++++++++++++++++++++++++++++++++oooooooooooooooooooooooo........++++++++",
"++++++++........oooooooooooooooooooooooo++++++++++++++++++++++++++++++++++++++++++++++++oooooooooooooooooooooooo........++++++++",
"++++++++........oooooooooooooooooooooooo++++++++++++++++++++++++++++++++++++++++++++++++oooooooooooooooooooooooo........++++++++",
"++++++++........oooooooooooooooooooooooo++++++++++++++++++++++++++++++++++++++++++++++++oooooooooooooooooooooooo........++++++++",
"++++++++........oooooooooooooooooooooooo++++++++++++++++++++++++++++++++++++++++++++++++oooooooooooooooooooooooo........++++++++",
"++++++++........oooooooooooooooooooooooo++++++++++++++++++++++++++++++++++++++++++++++++oooooooooooooooooooooooo........++++++++",
"++++++++........oooooooooooooooooooooooo++++++++++++++++++++++++++++++++++++++++++++++++oooooooooooooooooooooooo........++++++++",
"++++++++................................................................................................................++++++++",
"++++++++................................................................................................................++++++++",
"++++++++................................................................................................................++++++++",
"++++++++................................................................................................................++++++++",
"++++++++................................................................................................................++++++++",
"++++++++................................................................................................................++++++++",
"++++++++................................................................................................................++++++++",
"++++++++................................................................................................................++++++++",
"++++++++++++++++++++++++++++++++++++++++++++++++++++++++++++++++++++++++++++++++++++++++++++++++++++++++++++++++++++++++++++++++",
"++++++++++++++++++++++++++++++++++++++++++++++++++++++++++++++++++++++++++++++++++++++++++++++++++++++++++++++++++++++++++++++++",
"++++++++++++++++++++++++++++++++++++++++++++++++++++++++++++++++++++++++++++++++++++++++++++++++++++++++++++++++++++++++++++++++",
"++++++++++++++++++++++++++++++++++++++++++++++++++++++++++++++++++++++++++++++++++++++++++++++++++++++++++++++++++++++++++++++++",
"++++++++++++++++++++++++++++++++++++++++++++++++++++++++++++++++++++++++++++++++++++++++++++++++++++++++++++++++++++++++++++++++",
"++++++++++++++++++++++++++++++++++++++++++++++++++++++++++++++++++++++++++++++++++++++++++++++++++++++++++++++++++++++++++++++++",
"++++++++++++++++++++++++++++++++++++++++++++++++++++++++++++++++++++++++++++++++++++++++++++++++++++++++++++++++++++++++++++++++",
"++++++++++++++++++++++++++++++++++++++++++++++++++++++++++++++++++++++++++++++++++++++++++++++++++++++++++++++++++++++++++++++++",
"                                                                                                                                ",
"                                                                                                                                ",
"                                                                                                                                ",
"                                                                                                                                ",
"                                                                                                                                ",
"                                                                                                                                ",
"                                                                                                                                ",
"                                                                                                                                ",
"                                                                                                                                ",
"                                                                                                                                ",
"                                                                                                                                ",
"                                                                                                                                ",
"                                                                                                                                ",
"                                                                                                                                ",
"                                                                                                                                ",
"                                                                                                                                "
};
