/* XPM */
static char *_640098993938[] = {
/* columns rows colors chars-per-pixel */
"64 64 7 1 ",
"  c #4C3A30",
". c #484747",
"X c #991D1D",
"o c #E97339",
"O c #CFBF22",
"+ c #EFDAB4",
"@ c None",
/* pixels */
"@@@@@@@@@@@@@@@@@@@@@@@@@@@@@@@@@@@@@@@@@@@@@@@@@@@@@@@@@@@@@@@@",
"@@@@@@@@@@@@@@@@@@@@@@@@@@@@@@@@@@@@@@@@@@@@@@@@@@@@@@@@@@@@@@@@",
"@@@@@@@@@@@@@@@@@@@@@@@@@@@@@@@@@@@@@@@@@@@@@@@@@@@@@@@@@@@@@@@@",
"@@@@@@@@@@@@@@@@@@@@@@@@@@@@@@@@@@@@@@@@@@@@@@@@@@@@@@@@@@@@@@@@",
"oooo    XXXXXXXXXXXXXXXX    oooooooo    XXXXXXXXXXXXXXXX    oooo",
"oooo    XXXXXXXXXXXXXXXX    oooooooo    XXXXXXXXXXXXXXXX    oooo",
"oooo    XXXXXXXXXXXXXXXX    oooooooo    XXXXXXXXXXXXXXXX    oooo",
"oooo    XXXXXXXXXXXXXXXX    oooooooo    XXXXXXXXXXXXXXXX    oooo",
"OOOO    XXXXXXXXXXXXXXXX    OOOOOOOO    XXXXXXXXXXXXXXXX    OOOO",
"OOOO    XXXXXXXXXXXXXXXX    OOOOOOOO    XXXXXXXXXXXXXXXX    OOOO",
"OOOO    XXXXXXXXXXXXXXXX    OOOOOOOO    XXXXXXXXXXXXXXXX    OOOO",
"OOOO    XXXXXXXXXXXXXXXX    OOOOOOOO    XXXXXXXXXXXXXXXX    OOOO",
"++++    ................    ++++++++    ................    ++++",
"++++    ................    ++++++++    ................    ++++",
"++++    ................    ++++++++    ................    ++++",
"++++    ................    ++++++++    ................    ++++",
"++++    ................    ++++++++    ................    ++++",
"++++    ................    ++++++++    ................    ++++",
"++++    ................    ++++++++    ................    ++++",
"++++    ................    ++++++++    ................    ++++",
"OOOO    XXXXXXXXXXXXXXXX    OOOOOOOO    XXXXXXXXXXXXXXXX    OOOO",
"OOOO    XXXXXXXXXXXXXXXX    OOOOOOOO    XXXXXXXXXXXXXXXX    OOOO",
"OOOO    XXXXXXXXXXXXXXXX    OOOOOOOO    XXXXXXXXXXXXXXXX    OOOO",
"OOOO    XXXXXXXXXXXXXXXX    OOOOOOOO    XXXXXXXXXXXXXXXX    OOOO",
"OOOO    XXXXXXXXXXXX++++++++++++++++++++++++XXXXXXXXXXXX    OOOO",
"OOOO    XXXXXXXXXXXX++++++++++++++++++++++++XXXXXXXXXXXX    OOOO",
"OOOO    XXXXXXXXXXXX++++++++++++++++++++++++XXXXXXXXXXXX    OOOO",
"OOOO    XXXXXXXXXXXX++++++++++++++++++++++++XXXXXXXXXXXX    OOOO",
"OOOO                OOOOOOOOOOOOOOOOOOOOOOOO                OOOO",
"OOOO                OOOOOOOOOOOOOOOOOOOOOOOO                OOOO",
"OOOO                OOOOOOOOOOOOOOOOOOOOOOOO                OOOO",
"OOOO                OOOOOOOOOOOOOOOOOOOOOOOO                OOOO",
"OOOOOOOOOOOOOOOOOOOOOOOOOOOO........OOOOOOOOOOOOOOOOOOOOOOOOOOOO",
"OOOOOOOOOOOOOOOOOOOOOOOOOOOO........OOOOOOOOOOOOOOOOOOOOOOOOOOOO",
"OOOOOOOOOOOOOOOOOOOOOOOOOOOO........OOOOOOOOOOOOOOOOOOOOOOOOOOOO",
"OOOOOOOOOOOOOOOOOOOOOOOOOOOO........OOOOOOOOOOOOOOOOOOOOOOOOOOOO",
"ooooooooooooooooooooOOOOOOOO........OOOOOOOOoooooooooooooooooooo",
"ooooooooooooooooooooOOOOOOOO........OOOOOOOOoooooooooooooooooooo",
"ooooooooooooooooooooOOOOOOOO........OOOOOOOOoooooooooooooooooooo",
"ooooooooooooooooooooOOOOOOOO........OOOOOOOOoooooooooooooooooooo",
"OOOO                OOOOOOOOOOOOOOOOOOOOOOOO                OOOO",
"OOOO                OOOOOOOOOOOOOOOOOOOOOOOO                OOOO",
"OOOO                OOOOOOOOOOOOOOOOOOOOOOOO                OOOO",
"OOOO                OOOOOOOOOOOOOOOOOOOOOOOO                OOOO",
"OOOO    XXXXXXXXXXXXOOOOOOOOOOOOOOOOOOOOOOOOXXXXXXXXXXXX    OOOO",
"OOOO    XXXXXXXXXXXXOOOOOOOOOOOOOOOOOOOOOOOOXXXXXXXXXXXX    OOOO",
"OOOO    XXXXXXXXXXXXOOOOOOOOOOOOOOOOOOOOOOOOXXXXXXXXXXXX    OOOO",
"OOOO    XXXXXXXXXXXXOOOOOOOOOOOOOOOOOOOOOOOOXXXXXXXXXXXX    OOOO",
"OOOO                                                        OOOO",
"OOOO                                                        OOOO",
"OOOO                                                        OOOO",
"OOOO                                                        OOOO",
"OOOOOOOOOOOOOOOOOOOOOOOOOOOOOOOOOOOOOOOOOOOOOOOOOOOOOOOOOOOOOOOO",
"OOOOOOOOOOOOOOOOOOOOOOOOOOOOOOOOOOOOOOOOOOOOOOOOOOOOOOOOOOOOOOOO",
"OOOOOOOOOOOOOOOOOOOOOOOOOOOOOOOOOOOOOOOOOOOOOOOOOOOOOOOOOOOOOOOO",
"OOOOOOOOOOOOOOOOOOOOOOOOOOOOOOOOOOOOOOOOOOOOOOOOOOOOOOOOOOOOOOOO",
"@@@@@@@@@@@@@@@@@@@@@@@@@@@@@@@@@@@@@@@@@@@@@@@@@@@@@@@@@@@@@@@@",
"@@@@@@@@@@@@@@@@@@@@@@@@@@@@@@@@@@@@@@@@@@@@@@@@@@@@@@@@@@@@@@@@",
"@@@@@@@@@@@@@@@@@@@@@@@@@@@@@@@@@@@@@@@@@@@@@@@@@@@@@@@@@@@@@@@@",
"@@@@@@@@@@@@@@@@@@@@@@@@@@@@@@@@@@@@@@@@@@@@@@@@@@@@@@@@@@@@@@@@",
"@@@@@@@@@@@@@@@@@@@@@@@@@@@@@@@@@@@@@@@@@@@@@@@@@@@@@@@@@@@@@@@@",
"@@@@@@@@@@@@@@@@@@@@@@@@@@@@@@@@@@@@@@@@@@@@@@@@@@@@@@@@@@@@@@@@",
"@@@@@@@@@@@@@@@@@@@@@@@@@@@@@@@@@@@@@@@@@@@@@@@@@@@@@@@@@@@@@@@@",
"@@@@@@@@@@@@@@@@@@@@@@@@@@@@@@@@@@@@@@@@@@@@@@@@@@@@@@@@@@@@@@@@"
};
