/* XPM */
static char *_640192181696[] = {
/* columns rows colors chars-per-pixel */
"64 64 6 1 ",
"  c #2B2A2A",
". c #1B6C27",
"X c #5F4D32",
"o c #8B7804",
"O c #2A8437",
"+ c #B59C03",
/* pixels */
"OOOOOOOOOOOOOOOOOOOOOOOOOOOOOOOOOOOOOOOOOOOOOOOOOOOOOOOOOOOOOOOO",
"OOOOOOOOOOOOOOOOOOOOOOOOOOOOOOOOOOOOOOOOOOOOOOOOOOOOOOOOOOOOOOOO",
"OOOOOOOOOOOOOOOOOOOOOOOOOOOOOOOOOOOOOOOOOOOOOOOOOOOOOOOOOOOOOOOO",
"OOOOOOOOOOOOOOOOOOOOOOOOOOOOOOOOOOOOOOOOOOOOOOOOOOOOOOOOOOOOOOOO",
"OOOOOOOOOOOO....OOOOOOOOOOOOOOOOOOOOOOOOOOOOOOOOOOOOOOOOOOOOOOOO",
"OOOOOOOOOOOO....OOOOOOOOOOOOOOOOOOOOOOOOOOOOOOOOOOOOOOOOOOOOOOOO",
"OOOOOOOOOOOO....OOOOOOOOOOOOOOOOOOOOOOOOOOOOOOOOOOOOOOOOOOOOOOOO",
"OOOOOOOOOOOO....OOOOOOOOOOOOOOOOOOOOOOOOOOOOOOOOOOOOOOOOOOOOOOOO",
"OOOOOOOOOOOO....OOOOOOOOOOOOOOOOOOOOOOOOOOOOOOOOOOOOOOOOOOOOOOOO",
"OOOOOOOOOOOO....OOOOOOOOOOOOOOOOOOOOOOOOOOOOOOOOOOOOOOOOOOOOOOOO",
"OOOOOOOOOOOO....OOOOOOOOOOOOOOOOOOOOOOOOOOOOOOOOOOOOOOOOOOOOOOOO",
"OOOOOOOOOOOO....OOOOOOOOOOOOOOOOOOOOOOOOOOOOOOOOOOOOOOOOOOOOOOOO",
"OOOOOOOO....++++XXXX++++XXXXXXXXXXXXXXXXooooXXXXooooOOOOOOOOOOOO",
"OOOOOOOO....++++XXXX++++XXXXXXXXXXXXXXXXooooXXXXooooOOOOOOOOOOOO",
"OOOOOOOO....++++XXXX++++XXXXXXXXXXXXXXXXooooXXXXooooOOOOOOOOOOOO",
"OOOOOOOO....++++XXXX++++XXXXXXXXXXXXXXXXooooXXXXooooOOOOOOOOOOOO",
"OOOOOOOO++++++++XXXX++++XXXXXXXXXXXXXXXX++++XXXXooooooooOOOOOOOO",
"OOOOOOOO++++++++XXXX++++XXXXXXXXXXXXXXXX++++XXXXooooooooOOOOOOOO",
"OOOOOOOO++++++++XXXX++++XXXXXXXXXXXXXXXX++++XXXXooooooooOOOOOOOO",
"OOOOOOOO++++++++XXXX++++XXXXXXXXXXXXXXXX++++XXXXooooooooOOOOOOOO",
"OOOOOOOO++++XXXXXXXX++++XXXXXXXXXXXXXXXX++++XXXXXXXXooooOOOOOOOO",
"OOOOOOOO++++XXXXXXXX++++XXXXXXXXXXXXXXXX++++XXXXXXXXooooOOOOOOOO",
"OOOOOOOO++++XXXXXXXX++++XXXXXXXXXXXXXXXX++++XXXXXXXXooooOOOOOOOO",
"OOOOOOOO++++XXXXXXXX++++XXXXXXXXXXXXXXXX++++XXXXXXXXooooOOOOOOOO",
"OOOOOOOOXXXXXXXXXXXX++++XXXXXXXXXXXXXXXX++++XXXXXXXXXXXXOOOOOOOO",
"OOOOOOOOXXXXXXXXXXXX++++XXXXXXXXXXXXXXXX++++XXXXXXXXXXXXOOOOOOOO",
"OOOOOOOOXXXXXXXXXXXX++++XXXXXXXXXXXXXXXX++++XXXXXXXXXXXXOOOOOOOO",
"OOOOOOOOXXXXXXXXXXXX++++XXXXXXXXXXXXXXXX++++XXXXXXXXXXXXOOOOOOOO",
"OOOOOOOO++++++++++++++++++++oooooooo++++++++++++++++ooooOOOOOOOO",
"OOOOOOOO++++++++++++++++++++oooooooo++++++++++++++++ooooOOOOOOOO",
"OOOOOOOO++++++++++++++++++++oooooooo++++++++++++++++ooooOOOOOOOO",
"OOOOOOOO++++++++++++++++++++oooooooo++++++++++++++++ooooOOOOOOOO",
"OOOOOOOOXXXXXXXXXXXXXXXXXXXX        XXXXXXXXXXXXXXXXXXXXOOOOOOOO",
"OOOOOOOOXXXXXXXXXXXXXXXXXXXX        XXXXXXXXXXXXXXXXXXXXOOOOOOOO",
"OOOOOOOOXXXXXXXXXXXXXXXXXXXX        XXXXXXXXXXXXXXXXXXXXOOOOOOOO",
"OOOOOOOOXXXXXXXXXXXXXXXXXXXX        XXXXXXXXXXXXXXXXXXXXOOOOOOOO",
"OOOOOOOO++++XXXXXXXXXXXXXXXX++++++++XXXXXXXXXXXXXXXXooooOOOOOOOO",
"OOOOOOOO++++XXXXXXXXXXXXXXXX++++++++XXXXXXXXXXXXXXXXooooOOOOOOOO",
"OOOOOOOO++++XXXXXXXXXXXXXXXX++++++++XXXXXXXXXXXXXXXXooooOOOOOOOO",
"OOOOOOOO++++XXXXXXXXXXXXXXXX++++++++XXXXXXXXXXXXXXXXooooOOOOOOOO",
"OOOOOOOO++++XXXXXXXXXXXXXXXX++++++++XXXXXXXXXXXXXXXXooooOOOOOOOO",
"OOOOOOOO++++XXXXXXXXXXXXXXXX++++++++XXXXXXXXXXXXXXXXooooOOOOOOOO",
"OOOOOOOO++++XXXXXXXXXXXXXXXX++++++++XXXXXXXXXXXXXXXXooooOOOOOOOO",
"OOOOOOOO++++XXXXXXXXXXXXXXXX++++++++XXXXXXXXXXXXXXXXooooOOOOOOOO",
"OOOOOOOO++++++++++++XXXXXXXX++++++++XXXXXXXX++++++++++++OOOOOOOO",
"OOOOOOOO++++++++++++XXXXXXXX++++++++XXXXXXXX++++++++++++OOOOOOOO",
"OOOOOOOO++++++++++++XXXXXXXX++++++++XXXXXXXX++++++++++++OOOOOOOO",
"OOOOOOOO++++++++++++XXXXXXXX++++++++XXXXXXXX++++++++++++OOOOOOOO",
"OOOOOOOOOOOOOOOOOOOOOOOO........OOOOOOOOOOOOOOOOOOOO....OOOOOOOO",
"OOOOOOOOOOOOOOOOOOOOOOOO........OOOOOOOOOOOOOOOOOOOO....OOOOOOOO",
"OOOOOOOOOOOOOOOOOOOOOOOO........OOOOOOOOOOOOOOOOOOOO....OOOOOOOO",
"OOOOOOOOOOOOOOOOOOOOOOOO........OOOOOOOOOOOOOOOOOOOO....OOOOOOOO",
"OOOOOOOOOOOOOOOOOOOOOOOOOOOOOOOOOOOOOOOOOOOOOOOOOOOO....OOOOOOOO",
"OOOOOOOOOOOOOOOOOOOOOOOOOOOOOOOOOOOOOOOOOOOOOOOOOOOO....OOOOOOOO",
"OOOOOOOOOOOOOOOOOOOOOOOOOOOOOOOOOOOOOOOOOOOOOOOOOOOO....OOOOOOOO",
"OOOOOOOOOOOOOOOOOOOOOOOOOOOOOOOOOOOOOOOOOOOOOOOOOOOO....OOOOOOOO",
"OOOOOOOOOOOOOOOOOOOOOOOOOOOOOOOOOOOOOOOOOOOOOOOO........OOOOOOOO",
"OOOOOOOOOOOOOOOOOOOOOOOOOOOOOOOOOOOOOOOOOOOOOOOO........OOOOOOOO",
"OOOOOOOOOOOOOOOOOOOOOOOOOOOOOOOOOOOOOOOOOOOOOOOO........OOOOOOOO",
"OOOOOOOOOOOOOOOOOOOOOOOOOOOOOOOOOOOOOOOOOOOOOOOO........OOOOOOOO",
"OOOOOOOOOOOOOOOOOOOOOOOOOOOOOOOOOOOOOOOOOOOOOOOOOOOOOOOOOOOOOOOO",
"OOOOOOOOOOOOOOOOOOOOOOOOOOOOOOOOOOOOOOOOOOOOOOOOOOOOOOOOOOOOOOOO",
"OOOOOOOOOOOOOOOOOOOOOOOOOOOOOOOOOOOOOOOOOOOOOOOOOOOOOOOOOOOOOOOO",
"OOOOOOOOOOOOOOOOOOOOOOOOOOOOOOOOOOOOOOOOOOOOOOOOOOOOOOOOOOOOOOOO"
};
