/* XPM */
static char *_640191395899[] = {
/* columns rows colors chars-per-pixel */
"64 64 5 1 ",
"  c #1B6C27",
". c #2A8437",
"X c #B59C03",
"o c #D1C70F",
"O c gray97",
/* pixels */
"................................................................",
"................................................................",
"................................................................",
"................................................................",
"............    ................................................",
"............    ................................................",
"............    ................................................",
"............    ................................................",
"............    ................................................",
"............    ................................................",
"............    ................................................",
"............    ................................................",
"........        ................................    ............",
"........        ................................    ............",
"........        ................................    ............",
"........        ................................    ............",
"........................OOOOOOOOXXXXXXXX........    ............",
"........................OOOOOOOOXXXXXXXX........    ............",
"........................OOOOOOOOXXXXXXXX........    ............",
"........................OOOOOOOOXXXXXXXX........    ............",
"....................OOOOooooooooooooooooXXXX        ............",
"....................OOOOooooooooooooooooXXXX        ............",
"....................OOOOooooooooooooooooXXXX        ............",
"....................OOOOooooooooooooooooXXXX        ............",
"................OOOOooooooooOOOOOOOOooooooooXXXX................",
"................OOOOooooooooOOOOOOOOooooooooXXXX................",
"................OOOOooooooooOOOOOOOOooooooooXXXX................",
"................OOOOooooooooOOOOOOOOooooooooXXXX................",
"............    OOOOooooooooOOOOXXXXoooooooooooo................",
"............    OOOOooooooooOOOOXXXXoooooooooooo................",
"............    OOOOooooooooOOOOXXXXoooooooooooo................",
"............    OOOOooooooooOOOOXXXXoooooooooooo................",
"............    OOOOooooooooOOOOXXXXoooooooooooo................",
"............    OOOOooooooooOOOOXXXXoooooooooooo................",
"............    OOOOooooooooOOOOXXXXoooooooooooo................",
"............    OOOOooooooooOOOOXXXXoooooooooooo................",
"........        OOOOooooooooXXXXXXXXoooooooooooo................",
"........        OOOOooooooooXXXXXXXXoooooooooooo................",
"........        OOOOooooooooXXXXXXXXoooooooooooo................",
"........        OOOOooooooooXXXXXXXXoooooooooooo................",
"....................OOOOoooooooooooooooooooo....................",
"....................OOOOoooooooooooooooooooo....................",
"....................OOOOoooooooooooooooooooo....................",
"....................OOOOoooooooooooooooooooo....................",
"........................oooooooooooooooo........................",
"........................oooooooooooooooo........................",
"........................oooooooooooooooo........................",
"........................oooooooooooooooo........................",
"........................        ....................    ........",
"........................        ....................    ........",
"........................        ....................    ........",
"........................        ....................    ........",
"....................................................    ........",
"....................................................    ........",
"....................................................    ........",
"....................................................    ........",
"................................................        ........",
"................................................        ........",
"................................................        ........",
"................................................        ........",
"................................................................",
"................................................................",
"................................................................",
"................................................................"
};
