/* XPM */
static char *ac2cc121b2e84d55a2d8cee6f7b8967bsZihWNVkdNf3kSgZ[] = {
/* columns rows colors chars-per-pixel */
"64 64 10 1 ",
"  c black",
". c #2B2A2A",
"X c #32723D",
"o c #40403F",
"O c #545351",
"+ c #258534",
"@ c #B59C03",
"# c #D1C70F",
"$ c #929292",
"% c white",
/* pixels */
"++++++++++++++++++++++++                ++++++++++++++++++++++++",
"++++++++++++++++++++++++                ++++++++++++++++++++++++",
"++++++++++++++++++++++++                ++++++++++++++++++++++++",
"++++++++++++++++++++++++                ++++++++++++++++++++++++",
"++++++++++++XXXX++++                        ++++++++++++++++++++",
"++++++++++++XXXX++++                        ++++++++++++++++++++",
"++++++++++++XXXX++++                        ++++++++++++++++++++",
"++++++++++++XXXX++++                        ++++++++++++++++++++",
"++++++++++++XXXX++++++++OOOOOOOOOOOOoooo++++++++++++++++++++++++",
"++++++++++++XXXX++++++++OOOOOOOOOOOOoooo++++++++++++++++++++++++",
"++++++++++++XXXX++++++++OOOOOOOOOOOOoooo++++++++++++++++++++++++",
"++++++++++++XXXX++++++++OOOOOOOOOOOOoooo++++++++++++++++++++++++",
"++++++++XXXXXXXX++++OOOO####++++++++OOOOoooo++++XXXX++++++++++++",
"++++++++XXXXXXXX++++OOOO####++++++++OOOOoooo++++XXXX++++++++++++",
"++++++++XXXXXXXX++++OOOO####++++++++OOOOoooo++++XXXX++++++++++++",
"++++++++XXXXXXXX++++OOOO####++++++++OOOOoooo++++XXXX++++++++++++",
"++++++++++++++++OOOO####%%%%####OOOO%%%%OOOOooooXXXX++++++++++++",
"++++++++++++++++OOOO####%%%%####OOOO%%%%OOOOooooXXXX++++++++++++",
"++++++++++++++++OOOO####%%%%####OOOO%%%%OOOOooooXXXX++++++++++++",
"++++++++++++++++OOOO####%%%%####OOOO%%%%OOOOooooXXXX++++++++++++",
"++++++++++++++++####OOOO####OOOOOOOOOOOOOOOOOOOOXXXX++++++++++++",
"++++++++++++++++####OOOO####OOOOOOOOOOOOOOOOOOOOXXXX++++++++++++",
"++++++++++++++++####OOOO####OOOOOOOOOOOOOOOOOOOOXXXX++++++++++++",
"++++++++++++++++####OOOO####OOOOOOOOOOOOOOOOOOOOXXXX++++++++++++",
"++++++++++++ooooOOOOOOOOOOOO        OOOOOOOOOOOOoooo++++++++++++",
"++++++++++++ooooOOOOOOOOOOOO        OOOOOOOOOOOOoooo++++++++++++",
"++++++++++++ooooOOOOOOOOOOOO        OOOOOOOOOOOOoooo++++++++++++",
"++++++++++++ooooOOOOOOOOOOOO        OOOOOOOOOOOOoooo++++++++++++",
"++++++++oooooooo++++        OOOOOOOO        ++++oooooooo++++++++",
"++++++++oooooooo++++        OOOOOOOO        ++++oooooooo++++++++",
"++++++++oooooooo++++        OOOOOOOO        ++++oooooooo++++++++",
"++++++++oooooooo++++        OOOOOOOO        ++++oooooooo++++++++",
"++++++++ooooXXXX++++++++OOOOOOOOOOOOOOOO++++++++....oooo++++++++",
"++++++++ooooXXXX++++++++OOOOOOOOOOOOOOOO++++++++....oooo++++++++",
"++++++++ooooXXXX++++++++OOOOOOOOOOOOOOOO++++++++....oooo++++++++",
"++++++++ooooXXXX++++++++OOOOOOOOOOOOOOOO++++++++....oooo++++++++",
"++++++++ooooXXXX++++++++@@@@            ........++++oooo++++++++",
"++++++++ooooXXXX++++++++@@@@            ........++++oooo++++++++",
"++++++++ooooXXXX++++++++@@@@            ........++++oooo++++++++",
"++++++++ooooXXXX++++++++@@@@            ........++++oooo++++++++",
"++++++++oooo++++++++++++@@@@                ....++++oooo++++++++",
"++++++++oooo++++++++++++@@@@                ....++++oooo++++++++",
"++++++++oooo++++++++++++@@@@                ....++++oooo++++++++",
"++++++++oooo++++++++++++@@@@                ....++++oooo++++++++",
"++++++++oooo++++++++++++OOOOooooOOOO....        oooooooo++++++++",
"++++++++oooo++++++++++++OOOOooooOOOO....        oooooooo++++++++",
"++++++++oooo++++++++++++OOOOooooOOOO....        oooooooo++++++++",
"++++++++oooo++++++++++++OOOOooooOOOO....        oooooooo++++++++",
"++++oooo++++oooo++++++++XXXXOOOOoooo$$$$        ++++XXXX++++++++",
"++++oooo++++oooo++++++++XXXXOOOOoooo$$$$        ++++XXXX++++++++",
"++++oooo++++oooo++++++++XXXXOOOOoooo$$$$        ++++XXXX++++++++",
"++++oooo++++oooo++++++++XXXXOOOOoooo$$$$        ++++XXXX++++++++",
"++++oooo++++oooo++++++++ooooOOOOOOOO++++++++++++++++XXXX++++++++",
"++++oooo++++oooo++++++++ooooOOOOOOOO++++++++++++++++XXXX++++++++",
"++++oooo++++oooo++++++++ooooOOOOOOOO++++++++++++++++XXXX++++++++",
"++++oooo++++oooo++++++++ooooOOOOOOOO++++++++++++++++XXXX++++++++",
"++++++++++++++++++++++++OOOOooooOOOO++++++++++++XXXXXXXX++++++++",
"++++++++++++++++++++++++OOOOooooOOOO++++++++++++XXXXXXXX++++++++",
"++++++++++++++++++++++++OOOOooooOOOO++++++++++++XXXXXXXX++++++++",
"++++++++++++++++++++++++OOOOooooOOOO++++++++++++XXXXXXXX++++++++",
"++++++++++++++++++++++++++++OOOOOOOO++++++++++++++++++++++++++++",
"++++++++++++++++++++++++++++OOOOOOOO++++++++++++++++++++++++++++",
"++++++++++++++++++++++++++++OOOOOOOO++++++++++++++++++++++++++++",
"++++++++++++++++++++++++++++OOOOOOOO++++++++++++++++++++++++++++"
};
