/* XPM */
static char *_5779ddab84e420af06ddfb59240e920FGNrw4QZCjdPXjar[] = {
/* columns rows colors chars-per-pixel */
"64 64 8 1 ",
"  c black",
". c #1B6C27",
"X c #40403F",
"o c #545351",
"O c #258534",
"+ c #D1C70F",
"@ c #929292",
"# c white",
/* pixels */
"OOOOOOOOOOOOOOOOOOOOOOOO                OOOOOOOOOOOOOOOOOOOOOOOO",
"OOOOOOOOOOOOOOOOOOOOOOOO                OOOOOOOOOOOOOOOOOOOOOOOO",
"OOOOOOOOOOOOOOOOOOOOOOOO                OOOOOOOOOOOOOOOOOOOOOOOO",
"OOOOOOOOOOOOOOOOOOOOOOOO                OOOOOOOOOOOOOOOOOOOOOOOO",
"OOOOOOOOOOOO....OOOO                        OOOOOOOOOOOOOOOOOOOO",
"OOOOOOOOOOOO....OOOO                        OOOOOOOOOOOOOOOOOOOO",
"OOOOOOOOOOOO....OOOO                        OOOOOOOOOOOOOOOOOOOO",
"OOOOOOOOOOOO....OOOO                        OOOOOOOOOOOOOOOOOOOO",
"OOOOOOOOOOOO....OOOOOOOOooooooooooooXXXXOOOOOOOOOOOOOOOOOOOOOOOO",
"OOOOOOOOOOOO....OOOOOOOOooooooooooooXXXXOOOOOOOOOOOOOOOOOOOOOOOO",
"OOOOOOOOOOOO....OOOOOOOOooooooooooooXXXXOOOOOOOOOOOOOOOOOOOOOOOO",
"OOOOOOOOOOOO....OOOOOOOOooooooooooooXXXXOOOOOOOOOOOOOOOOOOOOOOOO",
"OOOOOOOO........OOOOoooo++++OOOOOOOOooooXXXXOOOO....OOOOOOOOOOOO",
"OOOOOOOO........OOOOoooo++++OOOOOOOOooooXXXXOOOO....OOOOOOOOOOOO",
"OOOOOOOO........OOOOoooo++++OOOOOOOOooooXXXXOOOO....OOOOOOOOOOOO",
"OOOOOOOO........OOOOoooo++++OOOOOOOOooooXXXXOOOO....OOOOOOOOOOOO",
"OOOOOOOOOOOOOOOOoooo++++####++++oooo####ooooXXXX....OOOOOOOOOOOO",
"OOOOOOOOOOOOOOOOoooo++++####++++oooo####ooooXXXX....OOOOOOOOOOOO",
"OOOOOOOOOOOOOOOOoooo++++####++++oooo####ooooXXXX....OOOOOOOOOOOO",
"OOOOOOOOOOOOOOOOoooo++++####++++oooo####ooooXXXX....OOOOOOOOOOOO",
"OOOOOOOOOOOOOOOO++++oooo++++oooooooooooooooooooo....OOOOOOOOOOOO",
"OOOOOOOOOOOOOOOO++++oooo++++oooooooooooooooooooo....OOOOOOOOOOOO",
"OOOOOOOOOOOOOOOO++++oooo++++oooooooooooooooooooo....OOOOOOOOOOOO",
"OOOOOOOOOOOOOOOO++++oooo++++oooooooooooooooooooo....OOOOOOOOOOOO",
"OOOOOOOOOOOOXXXXoooooooooooo        ooooooooooooXXXXOOOOOOOOOOOO",
"OOOOOOOOOOOOXXXXoooooooooooo        ooooooooooooXXXXOOOOOOOOOOOO",
"OOOOOOOOOOOOXXXXoooooooooooo        ooooooooooooXXXXOOOOOOOOOOOO",
"OOOOOOOOOOOOXXXXoooooooooooo        ooooooooooooXXXXOOOOOOOOOOOO",
"OOOOOOOOXXXXXXXXOOOO        oooooooo        OOOOXXXXXXXXOOOOOOOO",
"OOOOOOOOXXXXXXXXOOOO        oooooooo        OOOOXXXXXXXXOOOOOOOO",
"OOOOOOOOXXXXXXXXOOOO        oooooooo        OOOOXXXXXXXXOOOOOOOO",
"OOOOOOOOXXXXXXXXOOOO        oooooooo        OOOOXXXXXXXXOOOOOOOO",
"OOOOOOOOXXXX....OOOOOOOOooooooooooooooooOOOOOOOOOOOOXXXXOOOOOOOO",
"OOOOOOOOXXXX....OOOOOOOOooooooooooooooooOOOOOOOOOOOOXXXXOOOOOOOO",
"OOOOOOOOXXXX....OOOOOOOOooooooooooooooooOOOOOOOOOOOOXXXXOOOOOOOO",
"OOOOOOOOXXXX....OOOOOOOOooooooooooooooooOOOOOOOOOOOOXXXXOOOOOOOO",
"OOOOOOOOXXXX....OOOOOOOOOOOOooooooooOOOOOOOOOOOOOOOOXXXXOOOOOOOO",
"OOOOOOOOXXXX....OOOOOOOOOOOOooooooooOOOOOOOOOOOOOOOOXXXXOOOOOOOO",
"OOOOOOOOXXXX....OOOOOOOOOOOOooooooooOOOOOOOOOOOOOOOOXXXXOOOOOOOO",
"OOOOOOOOXXXX....OOOOOOOOOOOOooooooooOOOOOOOOOOOOOOOOXXXXOOOOOOOO",
"OOOOOOOOXXXXOOOOOOOOOOOOOOOOXXXXoooo@@@@@@@@OOOOOOOOXXXXOOOOOOOO",
"OOOOOOOOXXXXOOOOOOOOOOOOOOOOXXXXoooo@@@@@@@@OOOOOOOOXXXXOOOOOOOO",
"OOOOOOOOXXXXOOOOOOOOOOOOOOOOXXXXoooo@@@@@@@@OOOOOOOOXXXXOOOOOOOO",
"OOOOOOOOXXXXOOOOOOOOOOOOOOOOXXXXoooo@@@@@@@@OOOOOOOOXXXXOOOOOOOO",
"OOOOOOOOXXXXOOOOOOOOOOOOooooXXXXoooo@@@@@@@@@@@@XXXXXXXXOOOOOOOO",
"OOOOOOOOXXXXOOOOOOOOOOOOooooXXXXoooo@@@@@@@@@@@@XXXXXXXXOOOOOOOO",
"OOOOOOOOXXXXOOOOOOOOOOOOooooXXXXoooo@@@@@@@@@@@@XXXXXXXXOOOOOOOO",
"OOOOOOOOXXXXOOOOOOOOOOOOooooXXXXoooo@@@@@@@@@@@@XXXXXXXXOOOOOOOO",
"OOOOXXXXOOOOXXXXOOOOOOOO....ooooXXXX@@@@@@@@OOOOOOOO....OOOOOOOO",
"OOOOXXXXOOOOXXXXOOOOOOOO....ooooXXXX@@@@@@@@OOOOOOOO....OOOOOOOO",
"OOOOXXXXOOOOXXXXOOOOOOOO....ooooXXXX@@@@@@@@OOOOOOOO....OOOOOOOO",
"OOOOXXXXOOOOXXXXOOOOOOOO....ooooXXXX@@@@@@@@OOOOOOOO....OOOOOOOO",
"OOOOXXXXOOOOXXXXOOOOOOOOXXXXooooooooOOOOOOOOOOOOOOOO....OOOOOOOO",
"OOOOXXXXOOOOXXXXOOOOOOOOXXXXooooooooOOOOOOOOOOOOOOOO....OOOOOOOO",
"OOOOXXXXOOOOXXXXOOOOOOOOXXXXooooooooOOOOOOOOOOOOOOOO....OOOOOOOO",
"OOOOXXXXOOOOXXXXOOOOOOOOXXXXooooooooOOOOOOOOOOOOOOOO....OOOOOOOO",
"OOOOOOOOOOOOOOOOOOOOOOOOooooXXXXooooOOOOOOOOOOOO........OOOOOOOO",
"OOOOOOOOOOOOOOOOOOOOOOOOooooXXXXooooOOOOOOOOOOOO........OOOOOOOO",
"OOOOOOOOOOOOOOOOOOOOOOOOooooXXXXooooOOOOOOOOOOOO........OOOOOOOO",
"OOOOOOOOOOOOOOOOOOOOOOOOooooXXXXooooOOOOOOOOOOOO........OOOOOOOO",
"OOOOOOOOOOOOOOOOOOOOOOOOOOOOooooooooOOOOOOOOOOOOOOOOOOOOOOOOOOOO",
"OOOOOOOOOOOOOOOOOOOOOOOOOOOOooooooooOOOOOOOOOOOOOOOOOOOOOOOOOOOO",
"OOOOOOOOOOOOOOOOOOOOOOOOOOOOooooooooOOOOOOOOOOOOOOOOOOOOOOOOOOOO",
"OOOOOOOOOOOOOOOOOOOOOOOOOOOOooooooooOOOOOOOOOOOOOOOOOOOOOOOOOOOO"
};
