/* XPM */
static char *_641217842699[] = {
/* columns rows colors chars-per-pixel */
"64 64 7 1 ",
"  c black",
". c #00752A",
"X c #424241",
"o c #555452",
"O c #008E39",
"+ c gray57",
"@ c white",
/* pixels */
"OOOOOOOOOOOOOOOOOOOOOOOOooooooooooooXXXXOOOOOOOOOOOOOOOOOOOOOOOO",
"OOOOOOOOOOOOOOOOOOOOOOOOooooooooooooXXXXOOOOOOOOOOOOOOOOOOOOOOOO",
"OOOOOOOOOOOOOOOOOOOOOOOOooooooooooooXXXXOOOOOOOOOOOOOOOOOOOOOOOO",
"OOOOOOOOOOOOOOOOOOOOOOOOooooooooooooXXXXOOOOOOOOOOOOOOOOOOOOOOOO",
"OOOOOOOOOOOO....OOOOoooo    OOOOOOOOooooXXXXOOOOOOOOOOOOOOOOOOOO",
"OOOOOOOOOOOO....OOOOoooo    OOOOOOOOooooXXXXOOOOOOOOOOOOOOOOOOOO",
"OOOOOOOOOOOO....OOOOoooo    OOOOOOOOooooXXXXOOOOOOOOOOOOOOOOOOOO",
"OOOOOOOOOOOO....OOOOoooo    OOOOOOOOooooXXXXOOOOOOOOOOOOOOOOOOOO",
"OOOOOOOOOOOO....oooo    @@@@    oooo@@@@ooooXXXXOOOOOOOOOOOOOOOO",
"OOOOOOOOOOOO....oooo    @@@@    oooo@@@@ooooXXXXOOOOOOOOOOOOOOOO",
"OOOOOOOOOOOO....oooo    @@@@    oooo@@@@ooooXXXXOOOOOOOOOOOOOOOO",
"OOOOOOOOOOOO....oooo    @@@@    oooo@@@@ooooXXXXOOOOOOOOOOOOOOOO",
"OOOOOOOO........oooooooo    oooooooooooooooooooo....OOOOOOOOOOOO",
"OOOOOOOO........oooooooo    oooooooooooooooooooo....OOOOOOOOOOOO",
"OOOOOOOO........oooooooo    oooooooooooooooooooo....OOOOOOOOOOOO",
"OOOOOOOO........oooooooo    oooooooooooooooooooo....OOOOOOOOOOOO",
"OOOOOOOOOOOOXXXXoooooooooooo        ooooooooooooXXXXOOOOOOOOOOOO",
"OOOOOOOOOOOOXXXXoooooooooooo        ooooooooooooXXXXOOOOOOOOOOOO",
"OOOOOOOOOOOOXXXXoooooooooooo        ooooooooooooXXXXOOOOOOOOOOOO",
"OOOOOOOOOOOOXXXXoooooooooooo        ooooooooooooXXXXOOOOOOOOOOOO",
"OOOOOOOOXXXXXXXXOOOO        oooooooo        ....XXXXXXXXOOOOOOOO",
"OOOOOOOOXXXXXXXXOOOO        oooooooo        ....XXXXXXXXOOOOOOOO",
"OOOOOOOOXXXXXXXXOOOO        oooooooo        ....XXXXXXXXOOOOOOOO",
"OOOOOOOOXXXXXXXXOOOO        oooooooo        ....XXXXXXXXOOOOOOOO",
"OOOOOOOOXXXXOOOOOOOOOOOOooooooooooooooooOOOOOOOOOOOOXXXXOOOOOOOO",
"OOOOOOOOXXXXOOOOOOOOOOOOooooooooooooooooOOOOOOOOOOOOXXXXOOOOOOOO",
"OOOOOOOOXXXXOOOOOOOOOOOOooooooooooooooooOOOOOOOOOOOOXXXXOOOOOOOO",
"OOOOOOOOXXXXOOOOOOOOOOOOooooooooooooooooOOOOOOOOOOOOXXXXOOOOOOOO",
"OOOOOOOOXXXX....OOOOOOOOOOOOooooooooOOOOOOOOOOOOOOOOXXXXOOOOOOOO",
"OOOOOOOOXXXX....OOOOOOOOOOOOooooooooOOOOOOOOOOOOOOOOXXXXOOOOOOOO",
"OOOOOOOOXXXX....OOOOOOOOOOOOooooooooOOOOOOOOOOOOOOOOXXXXOOOOOOOO",
"OOOOOOOOXXXX....OOOOOOOOOOOOooooooooOOOOOOOOOOOOOOOOXXXXOOOOOOOO",
"OOOOOOOOXXXX....OOOOOOOOOOOOXXXXoooo++++++++OOOOOOOOXXXXOOOOOOOO",
"OOOOOOOOXXXX....OOOOOOOOOOOOXXXXoooo++++++++OOOOOOOOXXXXOOOOOOOO",
"OOOOOOOOXXXX....OOOOOOOOOOOOXXXXoooo++++++++OOOOOOOOXXXXOOOOOOOO",
"OOOOOOOOXXXX....OOOOOOOOOOOOXXXXoooo++++++++OOOOOOOOXXXXOOOOOOOO",
"OOOOOOOOXXXX....OOOOOOOOooooXXXXoooo++++++++++++XXXXXXXXOOOOOOOO",
"OOOOOOOOXXXX....OOOOOOOOooooXXXXoooo++++++++++++XXXXXXXXOOOOOOOO",
"OOOOOOOOXXXX....OOOOOOOOooooXXXXoooo++++++++++++XXXXXXXXOOOOOOOO",
"OOOOOOOOXXXX....OOOOOOOOooooXXXXoooo++++++++++++XXXXXXXXOOOOOOOO",
"OOOOXXXXOOOOXXXXOOOOOOOOOOOOooooXXXX++++++++OOOOOOOOOOOOOOOOOOOO",
"OOOOXXXXOOOOXXXXOOOOOOOOOOOOooooXXXX++++++++OOOOOOOOOOOOOOOOOOOO",
"OOOOXXXXOOOOXXXXOOOOOOOOOOOOooooXXXX++++++++OOOOOOOOOOOOOOOOOOOO",
"OOOOXXXXOOOOXXXXOOOOOOOOOOOOooooXXXX++++++++OOOOOOOOOOOOOOOOOOOO",
"OOOOXXXXOOOOXXXXOOOOOOOOXXXXooooooooOOOOOOOOOOOOOOOOOOOOOOOOOOOO",
"OOOOXXXXOOOOXXXXOOOOOOOOXXXXooooooooOOOOOOOOOOOOOOOOOOOOOOOOOOOO",
"OOOOXXXXOOOOXXXXOOOOOOOOXXXXooooooooOOOOOOOOOOOOOOOOOOOOOOOOOOOO",
"OOOOXXXXOOOOXXXXOOOOOOOOXXXXooooooooOOOOOOOOOOOOOOOOOOOOOOOOOOOO",
"OOOOOOOOOOOOOOOOOOOOOOOOooooXXXXooooOOOOOOOOOOOOOOOO....OOOOOOOO",
"OOOOOOOOOOOOOOOOOOOOOOOOooooXXXXooooOOOOOOOOOOOOOOOO....OOOOOOOO",
"OOOOOOOOOOOOOOOOOOOOOOOOooooXXXXooooOOOOOOOOOOOOOOOO....OOOOOOOO",
"OOOOOOOOOOOOOOOOOOOOOOOOooooXXXXooooOOOOOOOOOOOOOOOO....OOOOOOOO",
"OOOOOOOOOOOOOOOOOOOOOOOOOOOOooooooooOOOOOOOOOOOOOOOO....OOOOOOOO",
"OOOOOOOOOOOOOOOOOOOOOOOOOOOOooooooooOOOOOOOOOOOOOOOO....OOOOOOOO",
"OOOOOOOOOOOOOOOOOOOOOOOOOOOOooooooooOOOOOOOOOOOOOOOO....OOOOOOOO",
"OOOOOOOOOOOOOOOOOOOOOOOOOOOOooooooooOOOOOOOOOOOOOOOO....OOOOOOOO",
"OOOOOOOOOOOOOOOOOOOOOOOOOOOOOOOOOOOOOOOOOOOOOOOO........OOOOOOOO",
"OOOOOOOOOOOOOOOOOOOOOOOOOOOOOOOOOOOOOOOOOOOOOOOO........OOOOOOOO",
"OOOOOOOOOOOOOOOOOOOOOOOOOOOOOOOOOOOOOOOOOOOOOOOO........OOOOOOOO",
"OOOOOOOOOOOOOOOOOOOOOOOOOOOOOOOOOOOOOOOOOOOOOOOO........OOOOOOOO",
"OOOOOOOOOOOOOOOOOOOOOOOOOOOOOOOOOOOOOOOOOOOOOOOOOOOOOOOOOOOOOOOO",
"OOOOOOOOOOOOOOOOOOOOOOOOOOOOOOOOOOOOOOOOOOOOOOOOOOOOOOOOOOOOOOOO",
"OOOOOOOOOOOOOOOOOOOOOOOOOOOOOOOOOOOOOOOOOOOOOOOOOOOOOOOOOOOOOOOO",
"OOOOOOOOOOOOOOOOOOOOOOOOOOOOOOOOOOOOOOOOOOOOOOOOOOOOOOOOOOOOOOOO"
};
