/* XPM */
static char *result[] = {
/* columns rows colors chars-per-pixel */
"64 64 2 1 ",
"  c #1B6C27",
". c #2A8437",
/* pixels */
"................................................................",
"................................................................",
"................................................................",
"................................................................",
"............    ................................................",
"............    ................................................",
"............    ................................................",
"............    ................................................",
"............    ................................................",
"............    ................................................",
"............    ................................................",
"............    ................................................",
"........        ................................    ............",
"........        ................................    ............",
"........        ................................    ............",
"........        ................................    ............",
"................................................    ............",
"................................................    ............",
"................................................    ............",
"................................................    ............",
"............................................        ............",
"............................................        ............",
"............................................        ............",
"............................................        ............",
"................................................................",
"................................................................",
"................................................................",
"................................................................",
"............    ................................................",
"............    ................................................",
"............    ................................................",
"............    ................................................",
"............    ................................................",
"............    ................................................",
"............    ................................................",
"............    ................................................",
"........        ................................................",
"........        ................................................",
"........        ................................................",
"........        ................................................",
"............................    ................................",
"............................    ................................",
"............................    ................................",
"............................    ................................",
"............................    ................................",
"............................    ................................",
"............................    ................................",
"............................    ................................",
"........................        ....................    ........",
"........................        ....................    ........",
"........................        ....................    ........",
"........................        ....................    ........",
"....................................................    ........",
"....................................................    ........",
"....................................................    ........",
"....................................................    ........",
"................................................        ........",
"................................................        ........",
"................................................        ........",
"................................................        ........",
"................................................................",
"................................................................",
"................................................................",
"................................................................"
};
