/* XPM */
static char *c45e243abb8f4d0eb2e59c5cb5fd6aaaM1TYc585DB8LzQit[] = {
/* columns rows colors chars-per-pixel */
"64 64 15 1 ",
"  c gray2",
". c #32261D",
"X c #4C3A30",
"o c #1B6C27",
"O c #2B2664",
"+ c #735242",
"@ c #795646",
"# c #7F5B49",
"$ c #2A8437",
"% c #BBAB19",
"& c #CFBF22",
"* c #E0CE25",
"= c #423C8E",
"- c #EFDAB4",
"; c #CDCDCD",
/* pixels */
"$$$$$$$$$$$$$$$$$$$$####################++++$$$$$$$$$$$$$$$$$$$$",
"$$$$$$$$$$$$$$$$$$$$####################++++$$$$$$$$$$$$$$$$$$$$",
"$$$$$$$$$$$$$$$$$$$$####################++++$$$$$$$$$$$$$$$$$$$$",
"$$$$$$$$$$$$$$$$$$$$####################++++$$$$$$$$$$$$$$$$$$$$",
"$$$$$$$$$$$$oooo$$$$####------------########++++$$$$$$$$$$$$$$$$",
"$$$$$$$$$$$$oooo$$$$####------------########++++$$$$$$$$$$$$$$$$",
"$$$$$$$$$$$$oooo$$$$####------------########++++$$$$$$$$$$$$$$$$",
"$$$$$$$$$$$$oooo$$$$####------------########++++$$$$$$$$$$$$$$$$",
"$$$$$$$$$$$$oooo$$$$####....----....############++++$$$$$$$$$$$$",
"$$$$$$$$$$$$oooo$$$$####....----....############++++$$$$$$$$$$$$",
"$$$$$$$$$$$$oooo$$$$####....----....############++++$$$$$$$$$$$$",
"$$$$$$$$$$$$oooo$$$$####....----....############++++$$$$$$$$$$$$",
"$$$$$$$$oooooooo@@@@####----------------########oooo$$$$$$$$$$$$",
"$$$$$$$$oooooooo@@@@####----------------########oooo$$$$$$$$$$$$",
"$$$$$$$$oooooooo@@@@####----------------########oooo$$$$$$$$$$$$",
"$$$$$$$$oooooooo@@@@####----------------########oooo$$$$$$$$$$$$",
"$$$$$$$$$$$$$$$$@@@@$$$$----------------####$$$$oooo$$$$$$$$$$$$",
"$$$$$$$$$$$$$$$$@@@@$$$$----------------####$$$$oooo$$$$$$$$$$$$",
"$$$$$$$$$$$$$$$$@@@@$$$$----------------####$$$$oooo$$$$$$$$$$$$",
"$$$$$$$$$$$$$$$$@@@@$$$$----------------####$$$$oooo$$$$$$$$$$$$",
"$$$$$$$$$$$$$$$$$$$$****************&&&&&&&&oooooooo$$$$$$$$$$$$",
"$$$$$$$$$$$$$$$$$$$$****************&&&&&&&&oooooooo$$$$$$$$$$$$",
"$$$$$$$$$$$$$$$$$$$$****************&&&&&&&&oooooooo$$$$$$$$$$$$",
"$$$$$$$$$$$$$$$$$$$$****************&&&&&&&&oooooooo$$$$$$$$$$$$",
"$$$$$$$$$$$$$$$$****                        &&&&$$$$$$$$$$$$$$$$",
"$$$$$$$$$$$$$$$$****                        &&&&$$$$$$$$$$$$$$$$",
"$$$$$$$$$$$$$$$$****                        &&&&$$$$$$$$$$$$$$$$",
"$$$$$$$$$$$$$$$$****                        &&&&$$$$$$$$$$$$$$$$",
"$$$$$$$$$$$$oooo****        ****    ----****&&&&$$$$$$$$$$$$$$$$",
"$$$$$$$$$$$$oooo****        ****    ----****&&&&$$$$$$$$$$$$$$$$",
"$$$$$$$$$$$$oooo****        ****    ----****&&&&$$$$$$$$$$$$$$$$",
"$$$$$$$$$$$$oooo****        ****    ----****&&&&$$$$$$$$$$$$$$$$",
"$$$$$$$$$$$$oooo********----%%%%%%%%----********$$$$$$$$$$$$$$$$",
"$$$$$$$$$$$$oooo********----%%%%%%%%----********$$$$$$$$$$$$$$$$",
"$$$$$$$$$$$$oooo********----%%%%%%%%----********$$$$$$$$$$$$$$$$",
"$$$$$$$$$$$$oooo********----%%%%%%%%----********$$$$$$$$$$$$$$$$",
"$$$$$$$$oooooooo$$$$****----%%%%%%%%********$$$$$$$$$$$$$$$$$$$$",
"$$$$$$$$oooooooo$$$$****----%%%%%%%%********$$$$$$$$$$$$$$$$$$$$",
"$$$$$$$$oooooooo$$$$****----%%%%%%%%********$$$$$$$$$$$$$$$$$$$$",
"$$$$$$$$oooooooo$$$$****----%%%%%%%%********$$$$$$$$$$$$$$$$$$$$",
"$$$$$$$$$$$$$$$$$$$$XXXXXXXXXXXXXXXXXXXXXXXX$$$$$$$$$$$$$$$$$$$$",
"$$$$$$$$$$$$$$$$$$$$XXXXXXXXXXXXXXXXXXXXXXXX$$$$$$$$$$$$$$$$$$$$",
"$$$$$$$$$$$$$$$$$$$$XXXXXXXXXXXXXXXXXXXXXXXX$$$$$$$$$$$$$$$$$$$$",
"$$$$$$$$$$$$$$$$$$$$XXXXXXXXXXXXXXXXXXXXXXXX$$$$$$$$$$$$$$$$$$$$",
"$$$$$$$$$$$$$$$$$$$$OOOOOOOOOOOOOOOOOOOOOOOO$$$$$$$$$$$$$$$$$$$$",
"$$$$$$$$$$$$$$$$$$$$OOOOOOOOOOOOOOOOOOOOOOOO$$$$$$$$$$$$$$$$$$$$",
"$$$$$$$$$$$$$$$$$$$$OOOOOOOOOOOOOOOOOOOOOOOO$$$$$$$$$$$$$$$$$$$$",
"$$$$$$$$$$$$$$$$$$$$OOOOOOOOOOOOOOOOOOOOOOOO$$$$$$$$$$$$$$$$$$$$",
"$$$$$$$$$$$$$$$$$$$$OOOOOOOOoooo$$$$OOOOOOOO$$$$$$$$oooo$$$$$$$$",
"$$$$$$$$$$$$$$$$$$$$OOOOOOOOoooo$$$$OOOOOOOO$$$$$$$$oooo$$$$$$$$",
"$$$$$$$$$$$$$$$$$$$$OOOOOOOOoooo$$$$OOOOOOOO$$$$$$$$oooo$$$$$$$$",
"$$$$$$$$$$$$$$$$$$$$OOOOOOOOoooo$$$$OOOOOOOO$$$$$$$$oooo$$$$$$$$",
"$$$$$$$$$$$$$$$$$$$$OOOOOOOO$$$$$$$$OOOOOOOO$$$$$$$$oooo$$$$$$$$",
"$$$$$$$$$$$$$$$$$$$$OOOOOOOO$$$$$$$$OOOOOOOO$$$$$$$$oooo$$$$$$$$",
"$$$$$$$$$$$$$$$$$$$$OOOOOOOO$$$$$$$$OOOOOOOO$$$$$$$$oooo$$$$$$$$",
"$$$$$$$$$$$$$$$$$$$$OOOOOOOO$$$$$$$$OOOOOOOO$$$$$$$$oooo$$$$$$$$",
"$$$$$$$$$$$$$$$$$$$$========$$$$$$$$========$$$$oooooooo$$$$$$$$",
"$$$$$$$$$$$$$$$$$$$$========$$$$$$$$========$$$$oooooooo$$$$$$$$",
"$$$$$$$$$$$$$$$$$$$$========$$$$$$$$========$$$$oooooooo$$$$$$$$",
"$$$$$$$$$$$$$$$$$$$$========$$$$$$$$========$$$$oooooooo$$$$$$$$",
"$$$$$$$$$$$$$$$$$$$$;;;;;;;;$$$$$$$$;;;;;;;;$$$$$$$$$$$$$$$$$$$$",
"$$$$$$$$$$$$$$$$$$$$;;;;;;;;$$$$$$$$;;;;;;;;$$$$$$$$$$$$$$$$$$$$",
"$$$$$$$$$$$$$$$$$$$$;;;;;;;;$$$$$$$$;;;;;;;;$$$$$$$$$$$$$$$$$$$$",
"$$$$$$$$$$$$$$$$$$$$;;;;;;;;$$$$$$$$;;;;;;;;$$$$$$$$$$$$$$$$$$$$"
};
