/* XPM */
static char *result[] = {
/* columns rows colors chars-per-pixel */
"64 64 13 1 ",
"  c gray2",
". c #4C3A30",
"X c #2B2664",
"o c #735242",
"O c #795646",
"+ c #7F5B49",
"@ c #BBAB19",
"# c #CFBF22",
"$ c #E0CE25",
"% c #423C8E",
"& c #EFDAB4",
"* c #CDCDCD",
"= c None",
/* pixels */
"====================++++++++++++++++++++oooo====================",
"====================++++++++++++++++++++oooo====================",
"====================++++++++++++++++++++oooo====================",
"====================++++++++++++++++++++oooo====================",
"====================++++&&&&&&&&&&&&++++++++oooo================",
"====================++++&&&&&&&&&&&&++++++++oooo================",
"====================++++&&&&&&&&&&&&++++++++oooo================",
"====================++++&&&&&&&&&&&&++++++++oooo================",
"====================++++            ++++++++++++oooo============",
"====================++++            ++++++++++++oooo============",
"====================++++            ++++++++++++oooo============",
"====================++++            ++++++++++++oooo============",
"================OOOO++++    &&&&        ++++++++================",
"================OOOO++++    &&&&        ++++++++================",
"================OOOO++++    &&&&        ++++++++================",
"================OOOO++++    &&&&        ++++++++================",
"================OOOO====&&&&&&&&&&&&&&&&++++====================",
"================OOOO====&&&&&&&&&&&&&&&&++++====================",
"================OOOO====&&&&&&&&&&&&&&&&++++====================",
"================OOOO====&&&&&&&&&&&&&&&&++++====================",
"====================$$$$$$$$$$$$$$$$########====================",
"====================$$$$$$$$$$$$$$$$########====================",
"====================$$$$$$$$$$$$$$$$########====================",
"====================$$$$$$$$$$$$$$$$########====================",
"================$$$$$$$$$$$$$$$$$$$$$$$$########================",
"================$$$$$$$$$$$$$$$$$$$$$$$$########================",
"================$$$$$$$$$$$$$$$$$$$$$$$$########================",
"================$$$$$$$$$$$$$$$$$$$$$$$$########================",
"================$$$$$$$$$$$$$$$$$$$$$$$$$$$$####================",
"================$$$$$$$$$$$$$$$$$$$$$$$$$$$$####================",
"================$$$$$$$$$$$$$$$$$$$$$$$$$$$$####================",
"================$$$$$$$$$$$$$$$$$$$$$$$$$$$$####================",
"================$$$$$$$$&&&&@@@@@@@@&&&&$$$$$$$$================",
"================$$$$$$$$&&&&@@@@@@@@&&&&$$$$$$$$================",
"================$$$$$$$$&&&&@@@@@@@@&&&&$$$$$$$$================",
"================$$$$$$$$&&&&@@@@@@@@&&&&$$$$$$$$================",
"====================$$$$&&&&@@@@@@@@&&&&$$$$====================",
"====================$$$$&&&&@@@@@@@@&&&&$$$$====================",
"====================$$$$&&&&@@@@@@@@&&&&$$$$====================",
"====================$$$$&&&&@@@@@@@@&&&&$$$$====================",
"====================........................====================",
"====================........................====================",
"====================........................====================",
"====================........................====================",
"====================XXXXXXXXXXXXXXXXXXXXXXXX====================",
"====================XXXXXXXXXXXXXXXXXXXXXXXX====================",
"====================XXXXXXXXXXXXXXXXXXXXXXXX====================",
"====================XXXXXXXXXXXXXXXXXXXXXXXX====================",
"====================XXXXXXXX========XXXXXXXX====================",
"====================XXXXXXXX========XXXXXXXX====================",
"====================XXXXXXXX========XXXXXXXX====================",
"====================XXXXXXXX========XXXXXXXX====================",
"====================XXXXXXXX========XXXXXXXX====================",
"====================XXXXXXXX========XXXXXXXX====================",
"====================XXXXXXXX========XXXXXXXX====================",
"====================XXXXXXXX========XXXXXXXX====================",
"====================%%%%%%%%========%%%%%%%%====================",
"====================%%%%%%%%========%%%%%%%%====================",
"====================%%%%%%%%========%%%%%%%%====================",
"====================%%%%%%%%========%%%%%%%%====================",
"====================********========********====================",
"====================********========********====================",
"====================********========********====================",
"====================********========********===================="
};
