/* XPM */
static char *_ff853004b47493bdd52e686291f3746zAxyOMz8CUUcRQzB[] = {
/* columns rows colors chars-per-pixel */
"64 64 14 1 ",
"  c gray2",
". c #4C3A30",
"X c #1B6C27",
"o c #2B2664",
"O c #735242",
"+ c #795646",
"@ c #7F5B49",
"# c #2A8437",
"$ c #BBAB19",
"% c #CFBF22",
"& c #E0CE25",
"* c #423C8E",
"= c #EFDAB4",
"- c #CDCDCD",
/* pixels */
"####################@@@@@@@@@@@@@@@@@@@@OOOO####################",
"####################@@@@@@@@@@@@@@@@@@@@OOOO####################",
"####################@@@@@@@@@@@@@@@@@@@@OOOO####################",
"####################@@@@@@@@@@@@@@@@@@@@OOOO####################",
"############XXXX####@@@@============@@@@@@@@OOOO################",
"############XXXX####@@@@============@@@@@@@@OOOO################",
"############XXXX####@@@@============@@@@@@@@OOOO################",
"############XXXX####@@@@============@@@@@@@@OOOO################",
"############XXXX####@@@@            @@@@@@@@@@@@OOOO############",
"############XXXX####@@@@            @@@@@@@@@@@@OOOO############",
"############XXXX####@@@@            @@@@@@@@@@@@OOOO############",
"############XXXX####@@@@            @@@@@@@@@@@@OOOO############",
"########XXXXXXXX++++@@@@    ====        @@@@@@@@XXXX############",
"########XXXXXXXX++++@@@@    ====        @@@@@@@@XXXX############",
"########XXXXXXXX++++@@@@    ====        @@@@@@@@XXXX############",
"########XXXXXXXX++++@@@@    ====        @@@@@@@@XXXX############",
"################++++####================@@@@####XXXX############",
"################++++####================@@@@####XXXX############",
"################++++####================@@@@####XXXX############",
"################++++####================@@@@####XXXX############",
"####################&&&&&&&&&&&&&&&&%%%%%%%%XXXXXXXX############",
"####################&&&&&&&&&&&&&&&&%%%%%%%%XXXXXXXX############",
"####################&&&&&&&&&&&&&&&&%%%%%%%%XXXXXXXX############",
"####################&&&&&&&&&&&&&&&&%%%%%%%%XXXXXXXX############",
"################&&&&&&&&&&&&&&&&&&&&&&&&%%%%%%%%################",
"################&&&&&&&&&&&&&&&&&&&&&&&&%%%%%%%%################",
"################&&&&&&&&&&&&&&&&&&&&&&&&%%%%%%%%################",
"################&&&&&&&&&&&&&&&&&&&&&&&&%%%%%%%%################",
"############XXXX====&&&&&&&&====&&&&&&&&&&&&%%%%################",
"############XXXX====&&&&&&&&====&&&&&&&&&&&&%%%%################",
"############XXXX====&&&&&&&&====&&&&&&&&&&&&%%%%################",
"############XXXX====&&&&&&&&====&&&&&&&&&&&&%%%%################",
"############XXXX========&&&&========&&&&&&&&&&&&################",
"############XXXX========&&&&========&&&&&&&&&&&&################",
"############XXXX========&&&&========&&&&&&&&&&&&################",
"############XXXX========&&&&========&&&&&&&&&&&&################",
"########XXXXXXXX####&&&&&&&&$$$$$$$$&&&&&&&&####################",
"########XXXXXXXX####&&&&&&&&$$$$$$$$&&&&&&&&####################",
"########XXXXXXXX####&&&&&&&&$$$$$$$$&&&&&&&&####################",
"########XXXXXXXX####&&&&&&&&$$$$$$$$&&&&&&&&####################",
"####################........................####################",
"####################........................####################",
"####################........................####################",
"####################........................####################",
"####################oooooooooooooooooooooooo####################",
"####################oooooooooooooooooooooooo####################",
"####################oooooooooooooooooooooooo####################",
"####################oooooooooooooooooooooooo####################",
"####################ooooooooXXXX####oooooooo########XXXX########",
"####################ooooooooXXXX####oooooooo########XXXX########",
"####################ooooooooXXXX####oooooooo########XXXX########",
"####################ooooooooXXXX####oooooooo########XXXX########",
"####################oooooooo########oooooooo########XXXX########",
"####################oooooooo########oooooooo########XXXX########",
"####################oooooooo########oooooooo########XXXX########",
"####################oooooooo########oooooooo########XXXX########",
"####################********########********####XXXXXXXX########",
"####################********########********####XXXXXXXX########",
"####################********########********####XXXXXXXX########",
"####################********########********####XXXXXXXX########",
"####################--------########--------####################",
"####################--------########--------####################",
"####################--------########--------####################",
"####################--------########--------####################"
};
