/* XPM */
static char *_79ea40e56dd4d58f02b52cb98a19ec0otJiDu4qEQ9DRoNu[] = {
/* columns rows colors chars-per-pixel */
"128 128 13 1 ",
"  c None",
". c #32261D",
"X c #4C3A30",
"o c #2B2664",
"O c #735242",
"+ c #795646",
"@ c #7F5B49",
"# c #BBAB19",
"$ c #CFBF22",
"% c #E0CE25",
"& c #423C8E",
"* c #EFDAB4",
"= c #CDCDCD",
/* pixels */
"                                        @@@@@@@@@@@@@@@@@@@@@@@@@@@@@@@@@@@@@@@@OOOOOOOO                                        ",
"                                        @@@@@@@@@@@@@@@@@@@@@@@@@@@@@@@@@@@@@@@@OOOOOOOO                                        ",
"                                        @@@@@@@@@@@@@@@@@@@@@@@@@@@@@@@@@@@@@@@@OOOOOOOO                                        ",
"                                        @@@@@@@@@@@@@@@@@@@@@@@@@@@@@@@@@@@@@@@@OOOOOOOO                                        ",
"                                        @@@@@@@@@@@@@@@@@@@@@@@@@@@@@@@@@@@@@@@@OOOOOOOO                                        ",
"                                        @@@@@@@@@@@@@@@@@@@@@@@@@@@@@@@@@@@@@@@@OOOOOOOO                                        ",
"                                        @@@@@@@@@@@@@@@@@@@@@@@@@@@@@@@@@@@@@@@@OOOOOOOO                                        ",
"                                        @@@@@@@@@@@@@@@@@@@@@@@@@@@@@@@@@@@@@@@@OOOOOOOO                                        ",
"                                        @@@@@@@@************************@@@@@@@@@@@@@@@@OOOOOOOO                                ",
"                                        @@@@@@@@************************@@@@@@@@@@@@@@@@OOOOOOOO                                ",
"                                        @@@@@@@@************************@@@@@@@@@@@@@@@@OOOOOOOO                                ",
"                                        @@@@@@@@************************@@@@@@@@@@@@@@@@OOOOOOOO                                ",
"                                        @@@@@@@@************************@@@@@@@@@@@@@@@@OOOOOOOO                                ",
"                                        @@@@@@@@************************@@@@@@@@@@@@@@@@OOOOOOOO                                ",
"                                        @@@@@@@@************************@@@@@@@@@@@@@@@@OOOOOOOO                                ",
"                                        @@@@@@@@************************@@@@@@@@@@@@@@@@OOOOOOOO                                ",
"                                        @@@@@@@@........********........@@@@@@@@@@@@@@@@@@@@@@@@OOOOOOOO                        ",
"                                        @@@@@@@@........********........@@@@@@@@@@@@@@@@@@@@@@@@OOOOOOOO                        ",
"                                        @@@@@@@@........********........@@@@@@@@@@@@@@@@@@@@@@@@OOOOOOOO                        ",
"                                        @@@@@@@@........********........@@@@@@@@@@@@@@@@@@@@@@@@OOOOOOOO                        ",
"                                        @@@@@@@@........********........@@@@@@@@@@@@@@@@@@@@@@@@OOOOOOOO                        ",
"                                        @@@@@@@@........********........@@@@@@@@@@@@@@@@@@@@@@@@OOOOOOOO                        ",
"                                        @@@@@@@@........********........@@@@@@@@@@@@@@@@@@@@@@@@OOOOOOOO                        ",
"                                        @@@@@@@@........********........@@@@@@@@@@@@@@@@@@@@@@@@OOOOOOOO                        ",
"                                ++++++++@@@@@@@@********************************@@@@@@@@@@@@@@@@                                ",
"                                ++++++++@@@@@@@@********************************@@@@@@@@@@@@@@@@                                ",
"                                ++++++++@@@@@@@@********************************@@@@@@@@@@@@@@@@                                ",
"                                ++++++++@@@@@@@@********************************@@@@@@@@@@@@@@@@                                ",
"                                ++++++++@@@@@@@@********************************@@@@@@@@@@@@@@@@                                ",
"                                ++++++++@@@@@@@@********************************@@@@@@@@@@@@@@@@                                ",
"                                ++++++++@@@@@@@@********************************@@@@@@@@@@@@@@@@                                ",
"                                ++++++++@@@@@@@@********************************@@@@@@@@@@@@@@@@                                ",
"                                ++++++++        ********************************@@@@@@@@                                        ",
"                                ++++++++        ********************************@@@@@@@@                                        ",
"                                ++++++++        ********************************@@@@@@@@                                        ",
"                                ++++++++        ********************************@@@@@@@@                                        ",
"                                ++++++++        ********************************@@@@@@@@                                        ",
"                                ++++++++        ********************************@@@@@@@@                                        ",
"                                ++++++++        ********************************@@@@@@@@                                        ",
"                                ++++++++        ********************************@@@@@@@@                                        ",
"                                        %%%%%%%%%%%%%%%%%%%%%%%%%%%%%%%%$$$$$$$$$$$$$$$$                                        ",
"                                        %%%%%%%%%%%%%%%%%%%%%%%%%%%%%%%%$$$$$$$$$$$$$$$$                                        ",
"                                        %%%%%%%%%%%%%%%%%%%%%%%%%%%%%%%%$$$$$$$$$$$$$$$$                                        ",
"                                        %%%%%%%%%%%%%%%%%%%%%%%%%%%%%%%%$$$$$$$$$$$$$$$$                                        ",
"                                        %%%%%%%%%%%%%%%%%%%%%%%%%%%%%%%%$$$$$$$$$$$$$$$$                                        ",
"                                        %%%%%%%%%%%%%%%%%%%%%%%%%%%%%%%%$$$$$$$$$$$$$$$$                                        ",
"                                        %%%%%%%%%%%%%%%%%%%%%%%%%%%%%%%%$$$$$$$$$$$$$$$$                                        ",
"                                        %%%%%%%%%%%%%%%%%%%%%%%%%%%%%%%%$$$$$$$$$$$$$$$$                                        ",
"                                %%%%%%%%%%%%%%%%%%%%%%%%%%%%%%%%%%%%%%%%%%%%%%%%$$$$$$$$$$$$$$$$                                ",
"                                %%%%%%%%%%%%%%%%%%%%%%%%%%%%%%%%%%%%%%%%%%%%%%%%$$$$$$$$$$$$$$$$                                ",
"                                %%%%%%%%%%%%%%%%%%%%%%%%%%%%%%%%%%%%%%%%%%%%%%%%$$$$$$$$$$$$$$$$                                ",
"                                %%%%%%%%%%%%%%%%%%%%%%%%%%%%%%%%%%%%%%%%%%%%%%%%$$$$$$$$$$$$$$$$                                ",
"                                %%%%%%%%%%%%%%%%%%%%%%%%%%%%%%%%%%%%%%%%%%%%%%%%$$$$$$$$$$$$$$$$                                ",
"                                %%%%%%%%%%%%%%%%%%%%%%%%%%%%%%%%%%%%%%%%%%%%%%%%$$$$$$$$$$$$$$$$                                ",
"                                %%%%%%%%%%%%%%%%%%%%%%%%%%%%%%%%%%%%%%%%%%%%%%%%$$$$$$$$$$$$$$$$                                ",
"                                %%%%%%%%%%%%%%%%%%%%%%%%%%%%%%%%%%%%%%%%%%%%%%%%$$$$$$$$$$$$$$$$                                ",
"                                %%%%%%%%%%%%%%%%%%%%%%%%%%%%%%%%%%%%%%%%%%%%%%%%%%%%%%%%$$$$$$$$                                ",
"                                %%%%%%%%%%%%%%%%%%%%%%%%%%%%%%%%%%%%%%%%%%%%%%%%%%%%%%%%$$$$$$$$                                ",
"                                %%%%%%%%%%%%%%%%%%%%%%%%%%%%%%%%%%%%%%%%%%%%%%%%%%%%%%%%$$$$$$$$                                ",
"                                %%%%%%%%%%%%%%%%%%%%%%%%%%%%%%%%%%%%%%%%%%%%%%%%%%%%%%%%$$$$$$$$                                ",
"                                %%%%%%%%%%%%%%%%%%%%%%%%%%%%%%%%%%%%%%%%%%%%%%%%%%%%%%%%$$$$$$$$                                ",
"                                %%%%%%%%%%%%%%%%%%%%%%%%%%%%%%%%%%%%%%%%%%%%%%%%%%%%%%%%$$$$$$$$                                ",
"                                %%%%%%%%%%%%%%%%%%%%%%%%%%%%%%%%%%%%%%%%%%%%%%%%%%%%%%%%$$$$$$$$                                ",
"                                %%%%%%%%%%%%%%%%%%%%%%%%%%%%%%%%%%%%%%%%%%%%%%%%%%%%%%%%$$$$$$$$                                ",
"                                %%%%%%%%%%%%%%%%********################********%%%%%%%%%%%%%%%%                                ",
"                                %%%%%%%%%%%%%%%%********################********%%%%%%%%%%%%%%%%                                ",
"                                %%%%%%%%%%%%%%%%********################********%%%%%%%%%%%%%%%%                                ",
"                                %%%%%%%%%%%%%%%%********################********%%%%%%%%%%%%%%%%                                ",
"                                %%%%%%%%%%%%%%%%********################********%%%%%%%%%%%%%%%%                                ",
"                                %%%%%%%%%%%%%%%%********################********%%%%%%%%%%%%%%%%                                ",
"                                %%%%%%%%%%%%%%%%********################********%%%%%%%%%%%%%%%%                                ",
"                                %%%%%%%%%%%%%%%%********################********%%%%%%%%%%%%%%%%                                ",
"                                        %%%%%%%%********################********%%%%%%%%                                        ",
"                                        %%%%%%%%********################********%%%%%%%%                                        ",
"                                        %%%%%%%%********################********%%%%%%%%                                        ",
"                                        %%%%%%%%********################********%%%%%%%%                                        ",
"                                        %%%%%%%%********################********%%%%%%%%                                        ",
"                                        %%%%%%%%********################********%%%%%%%%                                        ",
"                                        %%%%%%%%********################********%%%%%%%%                                        ",
"                                        %%%%%%%%********################********%%%%%%%%                                        ",
"                                        XXXXXXXXXXXXXXXXXXXXXXXXXXXXXXXXXXXXXXXXXXXXXXXX                                        ",
"                                        XXXXXXXXXXXXXXXXXXXXXXXXXXXXXXXXXXXXXXXXXXXXXXXX                                        ",
"                                        XXXXXXXXXXXXXXXXXXXXXXXXXXXXXXXXXXXXXXXXXXXXXXXX                                        ",
"                                        XXXXXXXXXXXXXXXXXXXXXXXXXXXXXXXXXXXXXXXXXXXXXXXX                                        ",
"                                        XXXXXXXXXXXXXXXXXXXXXXXXXXXXXXXXXXXXXXXXXXXXXXXX                                        ",
"                                        XXXXXXXXXXXXXXXXXXXXXXXXXXXXXXXXXXXXXXXXXXXXXXXX                                        ",
"                                        XXXXXXXXXXXXXXXXXXXXXXXXXXXXXXXXXXXXXXXXXXXXXXXX                                        ",
"                                        XXXXXXXXXXXXXXXXXXXXXXXXXXXXXXXXXXXXXXXXXXXXXXXX                                        ",
"                                        oooooooooooooooooooooooooooooooooooooooooooooooo                                        ",
"                                        oooooooooooooooooooooooooooooooooooooooooooooooo                                        ",
"                                        oooooooooooooooooooooooooooooooooooooooooooooooo                                        ",
"                                        oooooooooooooooooooooooooooooooooooooooooooooooo                                        ",
"                                        oooooooooooooooooooooooooooooooooooooooooooooooo                                        ",
"                                        oooooooooooooooooooooooooooooooooooooooooooooooo                                        ",
"                                        oooooooooooooooooooooooooooooooooooooooooooooooo                                        ",
"                                        oooooooooooooooooooooooooooooooooooooooooooooooo                                        ",
"                                        oooooooooooooooo                oooooooooooooooo                                        ",
"                                        oooooooooooooooo                oooooooooooooooo                                        ",
"                                        oooooooooooooooo                oooooooooooooooo                                        ",
"                                        oooooooooooooooo                oooooooooooooooo                                        ",
"                                        oooooooooooooooo                oooooooooooooooo                                        ",
"                                        oooooooooooooooo                oooooooooooooooo                                        ",
"                                        oooooooooooooooo                oooooooooooooooo                                        ",
"                                        oooooooooooooooo                oooooooooooooooo                                        ",
"                                        oooooooooooooooo                oooooooooooooooo                                        ",
"                                        oooooooooooooooo                oooooooooooooooo                                        ",
"                                        oooooooooooooooo                oooooooooooooooo                                        ",
"                                        oooooooooooooooo                oooooooooooooooo                                        ",
"                                        oooooooooooooooo                oooooooooooooooo                                        ",
"                                        oooooooooooooooo                oooooooooooooooo                                        ",
"                                        oooooooooooooooo                oooooooooooooooo                                        ",
"                                        oooooooooooooooo                oooooooooooooooo                                        ",
"                                        &&&&&&&&&&&&&&&&                &&&&&&&&&&&&&&&&                                        ",
"                                        &&&&&&&&&&&&&&&&                &&&&&&&&&&&&&&&&                                        ",
"                                        &&&&&&&&&&&&&&&&                &&&&&&&&&&&&&&&&                                        ",
"                                        &&&&&&&&&&&&&&&&                &&&&&&&&&&&&&&&&                                        ",
"                                        &&&&&&&&&&&&&&&&                &&&&&&&&&&&&&&&&                                        ",
"                                        &&&&&&&&&&&&&&&&                &&&&&&&&&&&&&&&&                                        ",
"                                        &&&&&&&&&&&&&&&&                &&&&&&&&&&&&&&&&                                        ",
"                                        &&&&&&&&&&&&&&&&                &&&&&&&&&&&&&&&&                                        ",
"                                        ================                ================                                        ",
"                                        ================                ================                                        ",
"                                        ================                ================                                        ",
"                                        ================                ================                                        ",
"                                        ================                ================                                        ",
"                                        ================                ================                                        ",
"                                        ================                ================                                        ",
"                                        ================                ================                                        "
};
