/* XPM */
static char *result[] = {
/* columns rows colors chars-per-pixel */
"64 64 14 1 ",
"  c gray2",
". c #32261D",
"X c #4C3A30",
"o c #2B2664",
"O c #735242",
"+ c #795646",
"@ c #7F5B49",
"# c #BBAB19",
"$ c #CFBF22",
"% c #E0CE25",
"& c #423C8E",
"* c #EFDAB4",
"= c #CDCDCD",
"- c None",
/* pixels */
"--------------------@@@@@@@@@@@@@@@@@@@@OOOO--------------------",
"--------------------@@@@@@@@@@@@@@@@@@@@OOOO--------------------",
"--------------------@@@@@@@@@@@@@@@@@@@@OOOO--------------------",
"--------------------@@@@@@@@@@@@@@@@@@@@OOOO--------------------",
"--------------------@@@@************@@@@@@@@OOOO----------------",
"--------------------@@@@************@@@@@@@@OOOO----------------",
"--------------------@@@@************@@@@@@@@OOOO----------------",
"--------------------@@@@************@@@@@@@@OOOO----------------",
"--------------------@@@@....****....@@@@@@@@@@@@OOOO------------",
"--------------------@@@@....****....@@@@@@@@@@@@OOOO------------",
"--------------------@@@@....****....@@@@@@@@@@@@OOOO------------",
"--------------------@@@@....****....@@@@@@@@@@@@OOOO------------",
"----------------++++@@@@****************@@@@@@@@----------------",
"----------------++++@@@@****************@@@@@@@@----------------",
"----------------++++@@@@****************@@@@@@@@----------------",
"----------------++++@@@@****************@@@@@@@@----------------",
"----------------++++----****************@@@@--------------------",
"----------------++++----****************@@@@--------------------",
"----------------++++----****************@@@@--------------------",
"----------------++++----****************@@@@--------------------",
"--------------------%%%%%%%%%%%%%%%%$$$$$$$$--------------------",
"--------------------%%%%%%%%%%%%%%%%$$$$$$$$--------------------",
"--------------------%%%%%%%%%%%%%%%%$$$$$$$$--------------------",
"--------------------%%%%%%%%%%%%%%%%$$$$$$$$--------------------",
"----------------%%%%                        $$$$----------------",
"----------------%%%%                        $$$$----------------",
"----------------%%%%                        $$$$----------------",
"----------------%%%%                        $$$$----------------",
"----------------%%%%        %%%%    ****%%%%$$$$----------------",
"----------------%%%%        %%%%    ****%%%%$$$$----------------",
"----------------%%%%        %%%%    ****%%%%$$$$----------------",
"----------------%%%%        %%%%    ****%%%%$$$$----------------",
"----------------%%%%%%%%****########****%%%%%%%%----------------",
"----------------%%%%%%%%****########****%%%%%%%%----------------",
"----------------%%%%%%%%****########****%%%%%%%%----------------",
"----------------%%%%%%%%****########****%%%%%%%%----------------",
"--------------------%%%%****########%%%%%%%%--------------------",
"--------------------%%%%****########%%%%%%%%--------------------",
"--------------------%%%%****########%%%%%%%%--------------------",
"--------------------%%%%****########%%%%%%%%--------------------",
"--------------------XXXXXXXXXXXXXXXXXXXXXXXX--------------------",
"--------------------XXXXXXXXXXXXXXXXXXXXXXXX--------------------",
"--------------------XXXXXXXXXXXXXXXXXXXXXXXX--------------------",
"--------------------XXXXXXXXXXXXXXXXXXXXXXXX--------------------",
"--------------------oooooooooooooooooooooooo--------------------",
"--------------------oooooooooooooooooooooooo--------------------",
"--------------------oooooooooooooooooooooooo--------------------",
"--------------------oooooooooooooooooooooooo--------------------",
"--------------------oooooooo--------oooooooo--------------------",
"--------------------oooooooo--------oooooooo--------------------",
"--------------------oooooooo--------oooooooo--------------------",
"--------------------oooooooo--------oooooooo--------------------",
"--------------------oooooooo--------oooooooo--------------------",
"--------------------oooooooo--------oooooooo--------------------",
"--------------------oooooooo--------oooooooo--------------------",
"--------------------oooooooo--------oooooooo--------------------",
"--------------------&&&&&&&&--------&&&&&&&&--------------------",
"--------------------&&&&&&&&--------&&&&&&&&--------------------",
"--------------------&&&&&&&&--------&&&&&&&&--------------------",
"--------------------&&&&&&&&--------&&&&&&&&--------------------",
"--------------------========--------========--------------------",
"--------------------========--------========--------------------",
"--------------------========--------========--------------------",
"--------------------========--------========--------------------"
};
