/* XPM */
static char *result[] = {
/* columns rows colors chars-per-pixel */
"64 64 5 1 ",
"  c #165D21",
". c #264E2C",
"X c #1B6C27",
"o c #5F4D32",
"O c #2A8437",
/* pixels */
"OOOOOOOOOOOOOOOOOOOOOOOOOOOOOOOOOOOOOOOOOOOOOOOOOOOOOOOOOOOOOOOO",
"OOOOOOOOOOOOOOOOOOOOOOOOOOOOOOOOOOOOOOOOOOOOOOOOOOOOOOOOOOOOOOOO",
"OOOOOOOOOOOOOOOOOOOOOOOOOOOOOOOOOOOOOOOOOOOOOOOOOOOOOOOOOOOOOOOO",
"OOOOOOOOOOOOOOOOOOOOOOOOOOOOOOOOOOOOOOOOOOOOOOOOOOOOOOOOOOOOOOOO",
"OOOOOOOOOOOOXXXXOOOOOOOOOOOOOOOOOOOOOOOOOOOOOOOOOOOOOOOOOOOOOOOO",
"OOOOOOOOOOOOXXXXOOOOOOOOOOOOOOOOOOOOOOOOOOOOOOOOOOOOOOOOOOOOOOOO",
"OOOOOOOOOOOOXXXXOOOOOOOOOOOOOOOOOOOOOOOOOOOOOOOOOOOOOOOOOOOOOOOO",
"OOOOOOOOOOOOXXXXOOOOOOOOOOOOOOOOOOOOOOOOOOOOOOOOOOOOOOOOOOOOOOOO",
"OOOOOOOOOOOOXXXXOOOOOOOOOOOOOOOOOOOOOOOOOOOOOOOOOOOOOOOOOOOOOOOO",
"OOOOOOOOOOOOXXXXOOOOOOOOOOOOOOOOOOOOOOOOOOOOOOOOOOOOOOOOOOOOOOOO",
"OOOOOOOOOOOOXXXXOOOOOOOOOOOOOOOOOOOOOOOOOOOOOOOOOOOOOOOOOOOOOOOO",
"OOOOOOOOOOOOXXXXOOOOOOOOOOOOOOOOOOOOOOOOOOOOOOOOOOOOOOOOOOOOOOOO",
"OOOOOOOOXXXXXXXXOOOOOOOO........................XXXXOOOOOOOOOOOO",
"OOOOOOOOXXXXXXXXOOOOOOOO........................XXXXOOOOOOOOOOOO",
"OOOOOOOOXXXXXXXXOOOOOOOO........................XXXXOOOOOOOOOOOO",
"OOOOOOOOXXXXXXXXOOOOOOOO........................XXXXOOOOOOOOOOOO",
"OOOOOOOOOOOOOOOOOOOO........                ........OOOOOOOOOOOO",
"OOOOOOOOOOOOOOOOOOOO........                ........OOOOOOOOOOOO",
"OOOOOOOOOOOOOOOOOOOO........                ........OOOOOOOOOOOO",
"OOOOOOOOOOOOOOOOOOOO........                ........OOOOOOOOOOOO",
"OOOOOOOOOOOOOOOO....            ....            ....OOOOOOOOOOOO",
"OOOOOOOOOOOOOOOO....            ....            ....OOOOOOOOOOOO",
"OOOOOOOOOOOOOOOO....            ....            ....OOOOOOOOOOOO",
"OOOOOOOOOOOOOOOO....            ....            ....OOOOOOOOOOOO",
"OOOOOOOOOOOOOOOO....                    ....    ....OOOOOOOOOOOO",
"OOOOOOOOOOOOOOOO....                    ....    ....OOOOOOOOOOOO",
"OOOOOOOOOOOOOOOO....                    ....    ....OOOOOOOOOOOO",
"OOOOOOOOOOOOOOOO....                    ....    ....OOOOOOOOOOOO",
"OOOOOOOOOOOOXXXX........OOOOoooooooo    ....    OOOOOOOOOOOOOOOO",
"OOOOOOOOOOOOXXXX........OOOOoooooooo    ....    OOOOOOOOOOOOOOOO",
"OOOOOOOOOOOOXXXX........OOOOoooooooo    ....    OOOOOOOOOOOOOOOO",
"OOOOOOOOOOOOXXXX........OOOOoooooooo    ....    OOOOOOOOOOOOOOOO",
"OOOOOOOOOOOOXXXX....OOOOOOOOoooooooo....OOOO....OOOOOOOOOOOOOOOO",
"OOOOOOOOOOOOXXXX....OOOOOOOOoooooooo....OOOO....OOOOOOOOOOOOOOOO",
"OOOOOOOOOOOOXXXX....OOOOOOOOoooooooo....OOOO....OOOOOOOOOOOOOOOO",
"OOOOOOOOOOOOXXXX....OOOOOOOOoooooooo....OOOO....OOOOOOOOOOOOOOOO",
"OOOOOOOOXXXXXXXXOOOOOOOOOOOOooooooooOOOOOOOOOOOOOOOOOOOOOOOOOOOO",
"OOOOOOOOXXXXXXXXOOOOOOOOOOOOooooooooOOOOOOOOOOOOOOOOOOOOOOOOOOOO",
"OOOOOOOOXXXXXXXXOOOOOOOOOOOOooooooooOOOOOOOOOOOOOOOOOOOOOOOOOOOO",
"OOOOOOOOXXXXXXXXOOOOOOOOOOOOooooooooOOOOOOOOOOOOOOOOOOOOOOOOOOOO",
"OOOOOOOOOOOOOOOOOOOOOOOOooooooooooooOOOOOOOOOOOOOOOOOOOOOOOOOOOO",
"OOOOOOOOOOOOOOOOOOOOOOOOooooooooooooOOOOOOOOOOOOOOOOOOOOOOOOOOOO",
"OOOOOOOOOOOOOOOOOOOOOOOOooooooooooooOOOOOOOOOOOOOOOOOOOOOOOOOOOO",
"OOOOOOOOOOOOOOOOOOOOOOOOooooooooooooOOOOOOOOOOOOOOOOOOOOOOOOOOOO",
"OOOOOOOOOOOOOOOOOOOOooooooooooooOOOOOOOOOOOOOOOOOOOOOOOOOOOOOOOO",
"OOOOOOOOOOOOOOOOOOOOooooooooooooOOOOOOOOOOOOOOOOOOOOOOOOOOOOOOOO",
"OOOOOOOOOOOOOOOOOOOOooooooooooooOOOOOOOOOOOOOOOOOOOOOOOOOOOOOOOO",
"OOOOOOOOOOOOOOOOOOOOooooooooooooOOOOOOOOOOOOOOOOOOOOOOOOOOOOOOOO",
"OOOOOOOOOOOOOOOOooooooooooooXXXXOOOOOOOOOOOOOOOOOOOOXXXXOOOOOOOO",
"OOOOOOOOOOOOOOOOooooooooooooXXXXOOOOOOOOOOOOOOOOOOOOXXXXOOOOOOOO",
"OOOOOOOOOOOOOOOOooooooooooooXXXXOOOOOOOOOOOOOOOOOOOOXXXXOOOOOOOO",
"OOOOOOOOOOOOOOOOooooooooooooXXXXOOOOOOOOOOOOOOOOOOOOXXXXOOOOOOOO",
"OOOOOOOOOOOOOOOOOOOOOOOOOOOOOOOOOOOOOOOOOOOOOOOOOOOOXXXXOOOOOOOO",
"OOOOOOOOOOOOOOOOOOOOOOOOOOOOOOOOOOOOOOOOOOOOOOOOOOOOXXXXOOOOOOOO",
"OOOOOOOOOOOOOOOOOOOOOOOOOOOOOOOOOOOOOOOOOOOOOOOOOOOOXXXXOOOOOOOO",
"OOOOOOOOOOOOOOOOOOOOOOOOOOOOOOOOOOOOOOOOOOOOOOOOOOOOXXXXOOOOOOOO",
"OOOOOOOOOOOOOOOOOOOOOOOOOOOOOOOOOOOOOOOOOOOOOOOOXXXXXXXXOOOOOOOO",
"OOOOOOOOOOOOOOOOOOOOOOOOOOOOOOOOOOOOOOOOOOOOOOOOXXXXXXXXOOOOOOOO",
"OOOOOOOOOOOOOOOOOOOOOOOOOOOOOOOOOOOOOOOOOOOOOOOOXXXXXXXXOOOOOOOO",
"OOOOOOOOOOOOOOOOOOOOOOOOOOOOOOOOOOOOOOOOOOOOOOOOXXXXXXXXOOOOOOOO",
"OOOOOOOOOOOOOOOOOOOOOOOOOOOOOOOOOOOOOOOOOOOOOOOOOOOOOOOOOOOOOOOO",
"OOOOOOOOOOOOOOOOOOOOOOOOOOOOOOOOOOOOOOOOOOOOOOOOOOOOOOOOOOOOOOOO",
"OOOOOOOOOOOOOOOOOOOOOOOOOOOOOOOOOOOOOOOOOOOOOOOOOOOOOOOOOOOOOOOO",
"OOOOOOOOOOOOOOOOOOOOOOOOOOOOOOOOOOOOOOOOOOOOOOOOOOOOOOOOOOOOOOOO"
};
